<?xml version="1.0" encoding="UTF-8"?>
<!-- Uploaded to: SVG Find, www.svgrepo.com, Generator: SVG Find Mixer Tools -->
<svg fill="#000000" width="800px" height="800px" version="1.1" viewBox="144 144 512 512" xmlns="http://www.w3.org/2000/svg">
 <path d="m416.27 422.73c-5.3906-1.2031-10.918-1.8281-16.406-1.8633-5.4336-0.042969-10.871 0.48828-16.145 1.5664l0.007813 0.64453c0 10.598-4.3203 20.215-11.281 27.188-6.9609 6.9961-16.602 11.316-27.223 11.316-2.1523 0-4.2656-0.18359-6.332-0.52344-22.035 47.145-49.996 75.309-76.922 87.871-14.793 6.9375-29.438 9.2344-42.832 7.4688-13.746-1.8164-26.059-7.8945-35.824-17.637-13.973-13.93-22.637-35.25-22.637-62.125v-120.11c0-33.887 13.574-61.766 35.578-81.5 22.867-20.516 54.793-32.008 89.812-32.008h227.86c35.023 0 66.945 11.492 89.816 32.004 22 19.738 35.574 47.621 35.574 81.504v120.11c0 29.195-11.465 51.258-28.867 64.684-10.734 8.2812-23.641 13.203-37.441 14.414-13.52 1.1797-27.973-1.207-42.102-7.4922-28.176-12.527-55.059-40.742-70.098-87.133-1.9688 0.30859-3.9883 0.47656-6.0391 0.47656-10.621 0-20.262-4.3203-27.223-11.281l-0.56641-0.61719c-6.6289-6.9219-10.719-16.297-10.719-26.605l0.007813-0.34375zm-38.156-19.668c7.0859-1.5664 14.453-2.3281 21.832-2.2734 7.332 0.046875 14.664 0.91016 21.754 2.5586 1.6367-2.7383 3.6055-5.2617 5.8438-7.4961 6.9609-6.9609 16.602-11.281 27.223-11.281 10.629 0 20.262 4.3203 27.223 11.281l0.56641 0.61328c6.6406 6.9336 10.719 16.324 10.719 26.609 0 10.598-4.3203 20.215-11.281 27.188-0.875 0.875-1.7773 1.7148-2.7383 2.5 12.953 41.637 35.941 66.516 59.84 77.137 10.836 4.8125 21.879 6.6523 32.176 5.7539 10.02-0.87891 19.297-4.375 26.898-10.234 12.652-9.7578 20.988-26.348 20.988-48.781v-120.11c0-27.812-10.992-50.566-28.801-66.547-19.16-17.18-46.312-26.801-76.43-26.801h-227.86c-30.109 0-57.27 9.6211-76.422 26.809-17.816 15.973-28.805 38.727-28.805 66.539v120.11c0 21.25 6.3711 37.633 16.648 47.879 6.6289 6.6094 14.961 10.734 24.242 11.961 9.6328 1.2734 20.469-0.51953 31.742-5.7734 23.07-10.73 47.395-35.656 67.184-77.988-0.92188-0.76172-1.8086-1.5703-2.6523-2.4141l-0.56641-0.61719c-6.6289-6.9219-10.719-16.297-10.719-26.605 0-10.586 4.3203-20.219 11.301-27.207 6.9453-6.9805 16.578-11.301 27.207-11.301 10.621 0 20.262 4.3203 27.223 11.281 2.1602 2.1602 4.0703 4.5859 5.6719 7.2109zm-19.918 7.0352c-3.3086-3.3086-7.9141-5.3672-12.977-5.3672-5.0742 0-9.668 2.0586-12.977 5.3672-3.3281 3.2852-5.3672 7.8906-5.3672 12.977 0 4.8789 1.8906 9.3203 4.9688 12.598l0.39844 0.37891c3.3086 3.3086 7.9141 5.3672 12.977 5.3672s9.668-2.0586 12.977-5.3672c3.3164-3.2969 5.3672-7.9023 5.3672-12.977 0-5.0625-2.0586-9.668-5.3672-12.977zm109.55 0c-3.3086-3.3086-7.9023-5.3672-12.977-5.3672-5.0625 0-9.668 2.0586-12.977 5.3672-3.3086 3.3086-5.3672 7.9141-5.3672 12.977 0 4.8789 1.8906 9.3203 4.9688 12.598l0.39844 0.37891c3.3086 3.3086 7.9141 5.3672 12.977 5.3672s9.668-2.0586 12.977-5.3672c3.3164-3.2969 5.3672-7.9023 5.3672-12.977 0-4.8867-1.8789-9.332-4.9453-12.578zm-200.66-115.08c14.77 0 28.164 5.9844 37.844 15.688l0.48047 0.5c9.3906 9.6445 15.191 22.832 15.191 37.34 0 14.738-5.9922 28.133-15.672 37.816-9.7188 9.7188-23.113 15.711-37.844 15.711-14.75 0-28.141-5.9922-37.828-15.672-9.7109-9.6953-15.699-23.09-15.699-37.852 0-14.773 5.9844-28.156 15.672-37.84 9.6875-9.6992 23.062-15.688 37.852-15.688zm-24.062 90.281 13.152-13.156c3.5156-3.4922 3.5156-9.1953 0-12.711-3.5-3.5117-9.1875-3.5117-12.699 0l-13.156 13.156c-3.5039 3.5117-3.5039 9.1992 0 12.711 3.5 3.5039 9.1992 3.5039 12.703 0zm-12.703-60.805 13.156 13.152c3.5117 3.5 9.1992 3.5 12.699 0 3.5156-3.5273 3.5156-9.207 0-12.703l-13.152-13.156c-3.5039-3.5117-9.207-3.5117-12.703 0-3.5039 3.5039-3.5039 9.1953 0 12.711zm47.664 47.656 13.156 13.152c3.5039 3.5 9.1992 3.5 12.711 0 3.5-3.5117 3.5-9.1953 0-12.715l-13.156-13.141c-3.5117-3.5039-9.207-3.5039-12.711 0-3.5 3.5117-3.5 9.1992 0 12.703zm12.711-34.508 13.156-13.164c3.5-3.5039 3.5-9.1953 0-12.699-3.5117-3.5117-9.207-3.5117-12.711 0l-13.156 13.156c-3.5 3.4922-3.5 9.1758 0 12.703 3.5039 3.5 9.1992 3.5 12.711 0zm242.18-42.66c9.4062 0 17.035 7.6523 17.035 17.035 0 9.4141-7.6289 17.059-17.035 17.059-9.4023 0-17.035-7.6445-17.035-17.059 0-9.3828 7.6328-17.035 17.035-17.035zm-53.539 53.543c0-9.4023 7.6289-17.031 17.035-17.031 9.3945 0 17.031 7.6289 17.031 17.031 0 9.4141-7.6328 17.035-17.031 17.035-9.4062 0-17.035-7.6211-17.035-17.035zm73.008 0c0-9.4023 7.6406-17.031 17.031-17.031 9.4062 0 17.047 7.6289 17.047 17.031 0 9.4141-7.6406 17.035-17.047 17.035-9.3906 0-17.031-7.6211-17.031-17.035zm-19.469 19.457c9.4062 0 17.035 7.6406 17.035 17.055 0 9.3906-7.6289 17.023-17.035 17.023-9.4023 0-17.035-7.6328-17.035-17.023 0-9.4141 7.6328-17.055 17.035-17.055z"/>
</svg>