<!DOCTYPE svg PUBLIC "-//W3C//DTD SVG 1.1//EN" "http://www.w3.org/Graphics/SVG/1.1/DTD/svg11.dtd">
<!-- Uploaded to: SVG Find, www.svgrepo.com, Transformed by: SVG Find Mixer Tools -->
<svg fill="#000000" width="800px" height="800px" version="1.1" viewBox="144 144 512 512" xmlns="http://www.w3.org/2000/svg" stroke="#000000" stroke-width="3.072">
<g id="SVGRepo_bgCarrier" stroke-width="0"/>
<g id="SVGRepo_tracerCarrier" stroke-linecap="round" stroke-linejoin="round"/>
<g id="SVGRepo_iconCarrier"> <path d="m623.02 455.71-31.789-20.172c4.7344-5.043 7.3672-11.699 7.3672-18.613 0-3.1758-0.54297-6.3281-1.6172-9.3203-1.7891-4.9102-4.9609-9.2031-9.1289-12.363-4.168-3.1562-9.1562-5.0469-14.371-5.4453 5.2109-4.2383 8.668-10.25 9.7109-16.883 1.043-6.6367-0.40625-13.422-4.0664-19.051-3.6602-5.6289-9.2734-9.707-15.762-11.445-2.6602-0.71875-5.4141-1.0273-8.168-0.91797 2.2656-2.8867 3.9141-6.207 4.8438-9.7578 1.6719-6.2539 1.0586-12.902-1.7344-18.746-2.793-5.8438-7.582-10.496-13.5-13.121-5.918-2.6289-12.582-3.0547-18.789-1.207 2.7734-6.0391 3.2383-12.887 1.3047-19.246-1.9336-6.3594-6.1289-11.789-11.797-15.262-5.668-3.4727-12.41-4.7461-18.953-3.582-3.1641 0.50781-6.207 1.6055-8.9648 3.2422l-5.8164 3.4961-4.7305-3.6953c2.2812-1.9727 4.375-4.1484 6.25-6.5078 2.6914-3.457 4.9258-7.2461 6.6484-11.27 0.55078-1.2734-0.035157-2.75-1.3047-3.3047l-80.938-35.402c-2.4023-1.0664-5.0508-1.4492-7.6562-1.1094-2.6445-0.33984-5.3359 0.042968-7.7773 1.1094l-80.945 35.402c-1.2695 0.55469-1.8516 2.0312-1.3047 3.3047 1.7266 4.0273 3.9609 7.8203 6.6523 11.277 1.8789 2.3555 3.9688 4.5312 6.2461 6.5039l-4.6523 3.6328-5.9336-3.4609c-2.7461-1.5977-5.7539-2.6914-8.8828-3.2305-5.4922-0.96484-11.148-0.21875-16.203 2.1289-5.0586 2.3516-9.2695 6.1953-12.074 11.016-3.6211 6.2031-4.5469 13.613-2.5625 20.516 0.46875 1.6211 1.0898 3.1953 1.8516 4.7031-6.2383-1.957-12.973-1.6055-18.977 0.98437-6 2.5938-10.871 7.2539-13.727 13.137-2.8516 5.8828-3.5 12.594-1.8164 18.914 0.95703 3.6133 2.6602 6.9805 5.0039 9.8945-7.6758-0.41797-15.168 2.4531-20.598 7.8906-5.4336 5.4414-8.2969 12.938-7.8711 20.613 0.42578 7.6758 4.1016 14.805 10.102 19.613-6.9258 0.37891-13.438 3.418-18.184 8.4727-4.7422 5.0586-7.3555 11.754-7.293 18.688 0.058593 6.9336 2.793 13.578 7.625 18.555l-31.762 20.016c-1.1562 0.72656-1.5234 2.2422-0.82422 3.418l79.648 133.76h0.003906c0.34375 0.57812 0.90625 0.99609 1.5625 1.1562 0.19922 0.046875 0.39844 0.070312 0.60156 0.074219 0.46875-0.003907 0.92578-0.13281 1.3242-0.37891 0.78906-0.48438 78.945-48.707 103.28-62.715v0.003906c4.5391-1.207 9.2422-1.6953 13.938-1.4492 0 0 37.711-0.042969 44.449 0.097656l0.027344 0.007813c5.5-0.20703 11.008 0.23438 16.402 1.3203 24.359 14.043 102.52 62.246 103.31 62.734 0.39844 0.24609 0.85547 0.375 1.3242 0.375 0.19922 0 0.40234-0.023437 0.59766-0.070312 0.65625-0.16406 1.2188-0.58203 1.5664-1.1602l79.645-133.75c0.69531-1.1719 0.33594-2.6875-0.81641-3.418zm-143.68-201.7c-1.8789 2.3633-3.9922 4.5273-6.3164 6.457l-56.137-43.824 67.395 29.477c-1.375 2.793-3.0312 5.4375-4.9414 7.8906zm-158.68 0.007813c-1.9141-2.457-3.5703-5.1055-4.9453-7.8984l78.574-34.367h-0.003906c1.6875-0.74609 3.5508-0.99609 5.375-0.71875 1.1172 0.16797 2.1992 0.51172 3.207 1.0156l74.297 58.039-77.203 46.379c-8.8594-5.2109-10.547-15.934-5.1602-32.719h-0.003906c0.23438-0.73438 0.11719-1.5352-0.3125-2.1758l-10.055-14.898h-0.003907c-0.67969-1.0117-1.9883-1.3867-3.1055-0.89844l-4.9688 2.1953c-7.7969 3.4375-16.391 4.6758-24.84 3.5742-8.4531-1.0977-16.441-4.4922-23.098-9.8164-2.9023-2.2305-5.5078-4.8242-7.7539-7.7109zm-41.105 22.207h-0.003907c3.9727-6.8359 11.285-11.043 19.195-11.039 1.2852 0 2.5742 0.11328 3.8398 0.33984 2.6094 0.45703 56.742 31.512 56.742 31.512v-0.003907c5.0898 4.1758 8.0586 10.395 8.1055 16.977s-2.832 12.844-7.8555 17.09c-5.0273 4.25-11.68 6.0469-18.16 4.9023-2.543-0.42969-4.9805-1.3164-7.2109-2.6094l-47.16-27.891h0.003906c-4.6367-2.9062-8.043-7.4102-9.5781-12.664-1.6055-5.5898-0.85156-11.59 2.0781-16.613zm-32.512 37.629h-0.003907c4-6.9141 11.375-11.176 19.363-11.184 3.8477 0 7.625 1.0195 10.957 2.9453l45.328 26.84v0.003906c1.8398 2.7812 3.1367 5.8906 3.8125 9.1562 1.5234 5.6797 0.72656 11.73-2.2109 16.824-2.9375 5.0898-7.7773 8.8047-13.457 10.328-5.6797 1.5234-11.73 0.72656-16.82-2.2109l-38.859-22.438c-5.1094-2.9102-8.832-7.7539-10.324-13.441-1.5234-5.6797-0.72656-11.73 2.2109-16.824zm-24.773 60.785c-1.5195-5.6758-0.72266-11.723 2.2148-16.809 2.9414-5.0898 7.7773-8.8008 13.453-10.324 5.6758-1.5195 11.723-0.72656 16.812 2.2109l34.973 20.191c6.8555 3.957 11.078 11.273 11.078 19.188 0 7.918-4.2266 15.234-11.082 19.191s-15.301 3.957-22.156 0l-34.973-20.191v-0.003906c-5.1016-2.9219-8.8164-7.7695-10.32-13.453zm30.871 31.137 1.5938 0.92188-0.96875 0.60938c-0.19922-0.51562-0.39844-1.0273-0.625-1.5312zm-45.543 3.707c2.2305-6.2344 7.1484-11.133 13.391-13.348 6.2422-2.2109 13.145-1.5 18.805 1.9375l0.36328 0.21094h0.003906c4.8008 3.0117 8.2656 7.75 9.6875 13.238 0.023438 0.09375 0.050782 0.19141 0.082032 0.28516 1.6641 6.8125 0.003906 14.016-4.4766 19.41-4.4805 5.3984-11.254 8.3516-18.258 7.9688-7.0039-0.38672-13.41-4.0625-17.273-9.918-3.8633-5.8555-4.7266-13.195-2.3242-19.785zm154.67-116.57-39.305-22.926 4.0234-3.1406c14.875 10.957 34.465 13.148 51.391 5.7461l3.0508-1.3477 8.2031 12.145c-5.9219 19.344-2.8086 32.207 9.2656 38.238 0.76953 0.37891 1.6836 0.34375 2.4219-0.09375l88.875-53.391c2.2227-1.3164 4.6758-2.1992 7.2227-2.6016 4.4727-0.78516 9.0781-0.1875 13.195 1.7227 4.1211 1.9062 7.5586 5.0273 9.8516 8.9453 2.6445 4.5039 3.5977 9.8008 2.6875 14.941-0.91016 5.1445-3.6211 9.793-7.6523 13.113l-33.473 22.391 0.003906 0.003906c-0.55859 0.36719-0.94922 0.94531-1.082 1.6055-0.12891 0.65625 0.003906 1.3398 0.37891 1.8945 0.37109 0.55859 0.95312 0.94531 1.6094 1.0703 0.66016 0.12891 1.3398-0.007813 1.8984-0.38672l37.852-25.32h-0.003906c5.0938-2.9375 11.145-3.7344 16.82-2.2109 5.6797 1.5234 10.52 5.2383 13.457 10.332 2.9375 5.0898 3.7344 11.141 2.2109 16.82-1.5 5.6914-5.2266 10.539-10.344 13.449l-31.543 18.527c-1.1992 0.70703-1.5977 2.25-0.89453 3.4492 0.70703 1.1992 2.25 1.6016 3.4492 0.89453l29.895-17.566v0.003906c6.8945-3.7539 15.262-3.5781 21.992 0.46094 6.7305 4.0391 10.824 11.336 10.758 19.188-0.066406 7.8516-4.2773 15.078-11.078 19.004l-34.973 20.191c-1.2031 0.69531-1.6133 2.2383-0.91797 3.4414 0.69531 1.2031 2.2344 1.6172 3.4375 0.92188l24.414-14.09v0.003906c3.6055-2.3203 7.793-3.5625 12.078-3.5859 4.543 0.003907 8.9727 1.4023 12.691 4.0039 3.7227 2.6055 6.5508 6.2852 8.1133 10.551 0.87109 2.4453 1.3164 5.0195 1.3125 7.6133 0.023438 6.6484-2.9414 12.957-8.0742 17.184-1.5977 1.0234-129.45 80.133-130.75 80.934-10.035 6.5312-21.812 9.8789-33.785 9.5977-6.4141 0-44.379-0.21484-44.52-0.097656-11.723 0.38281-14.762 1.2227-16.336 2.0938-22.133 12.742-88.391 53.531-101.27 61.473l-77.086-129.45 30.973-19.52v0.003906c5.8711 4.2148 13.184 5.9102 20.312 4.7031 7.125-1.2031 13.477-5.207 17.637-11.117 4.1602-5.9102 5.7852-13.238 4.5117-20.355l4.4922-2.8203 5.375 3.1016v0.003906c4.1172 2.3906 8.793 3.6484 13.555 3.6562 2.3906-0.003906 4.7734-0.32031 7.0859-0.94141 8.4688-2.1641 15.359-8.3125 18.469-16.484s2.0547-17.344-2.832-24.594c9.0352 1.2695 18.102-2.0781 24.148-8.9102 6.043-6.832 8.2578-16.242 5.8945-25.055-0.29688-1.1055-0.61719-2.2227-0.96875-3.3281 3.0781 2 6.5312 3.3516 10.145 3.9688 5.5 0.97266 11.164 0.22656 16.223-2.1328 5.0586-2.3594 9.2734-6.2188 12.062-11.055 3.2461-5.6367 4.3672-12.25 3.1641-18.645-1.1992-6.3945-4.6484-12.148-9.7188-16.223zm178.9 295.2c-12.77-7.8672-77.914-47.961-100.64-61.109v-0.003906c5.9727-1.7031 11.656-4.2891 16.867-7.6719 79.008-48.887 122.48-75.797 129.82-80.371l31.043 19.699z"/> </g>
</svg>