<!DOCTYPE svg PUBLIC "-//W3C//DTD SVG 1.1//EN" "http://www.w3.org/Graphics/SVG/1.1/DTD/svg11.dtd">
<!-- Uploaded to: SVG Find, www.svgrepo.com, Transformed by: SVG Find Mixer Tools -->
<svg width="800px" height="800px" version="1.1" viewBox="144 144 512 512" xmlns="http://www.w3.org/2000/svg" fill="#000000" stroke="#000000" stroke-width="2.56">
<g id="SVGRepo_bgCarrier" stroke-width="0"/>
<g id="SVGRepo_tracerCarrier" stroke-linecap="round" stroke-linejoin="round"/>
<g id="SVGRepo_iconCarrier"> <defs> <clipPath id="a"> <path d="m148.09 148.09h503.81v503.81h-503.81z"/> </clipPath> </defs> <path d="m399.84 411.29m-117.2-19.836c0 0.003907 0.054687 0.10938 0 0.003907z"/> <path d="m600.94 464.17c0-34.152-18.562-63.16-44.125-72.973h0.003906c9.4766-5.6289 15.992-15.148 17.809-26.02 1.8164-10.871-1.25-21.992-8.3789-30.395-7.1328-8.4062-17.605-13.242-28.629-13.219-2.9102 0.007812-5.8086 0.34766-8.6445 1.0078-1.8047-11.887-9.2188-22.18-19.918-27.66-10.703-5.4805-23.387-5.4805-34.09 0-10.699 5.4805-18.113 15.773-19.918 27.66-2.9922-0.79297-6.0781-1.1875-9.1758-1.168-2.9102 0.011718-5.8086 0.34766-8.6445 1.0078-1.8047-11.887-9.2188-22.18-19.918-27.66-10.703-5.4805-23.387-5.4805-34.09 0-10.699 5.4805-18.113 15.773-19.918 27.66-2.9922-0.79297-6.0781-1.1875-9.1758-1.1641-2.9141 0-5.8164 0.35547-8.6445 1.0586-1.8047-11.887-9.2188-22.18-19.918-27.66-10.703-5.4805-23.387-5.4805-34.09 0-10.699 5.4805-18.113 15.773-19.918 27.66-2.9922-0.79297-6.0781-1.1875-9.1758-1.1641-9.9297 0-19.453 3.9414-26.477 10.965-7.0195 7.0195-10.965 16.543-10.965 26.473-0.082031 1.1328-0.082031 2.2656 0 3.3945v0.48047c0.10156 1.1211 0.25781 2.2344 0.47656 3.3398v0.95312c0 0.31641 0.47656 1.9102 0.74219 2.8125 0.37109 1.168 0.79688 2.2812 1.2734 3.3945 0.47656 1.1133 0.84766 1.9102 1.3242 2.8633h0.003906c1.0742 2.0078 2.3164 3.9258 3.7109 5.7266 0.31641 0.37109 0.63672 0.79688 0.95312 1.1133s1.1133 1.2734 1.75 1.8555 1.2188 1.2188 1.8555 1.75h0.003906c0.43359 0.41797 0.89453 0.80859 1.3789 1.168 1.2812 1.0625 2.6484 2.0195 4.082 2.8633-24.871 10.766-43.434 39.723-43.434 73.875v5.3047h48.367-0.003906c-1.4766 6.5977-2.2227 13.336-2.2266 20.098v5.3047h310.14v-5.3047c-0.003906-6.7617-0.75-13.5-2.2266-20.098h47.73zm-71.805-130.46c2.7344-0.91797 5.6016-1.3828 8.4844-1.3789 9.1328 0.019531 17.629 4.6797 22.555 12.371 4.9219 7.6914 5.5938 17.363 1.7812 25.66-3.8086 8.3008-11.582 14.094-20.621 15.375-1.2266 0.21484-2.4688 0.32031-3.7148 0.31641-2.7539 0.007813-5.4922-0.42188-8.1133-1.2734 0.015625-5.1875-1.0664-10.32-3.1836-15.059-2.1484-4.9453-5.3711-9.3477-9.4375-12.891-1.625-1.4883-3.4023-2.8047-5.3047-3.9219 2.0938-9.0273 8.75-16.305 17.555-19.199zm-194.42 45.926c1.4453 7.5898-0.48828 15.434-5.3008 21.48-3.3438 4.1719-7.8477 7.2617-12.949 8.8672-5.0977 1.6055-10.562 1.6562-15.691 0.14844-8.1602-2.4023-14.637-8.6406-17.34-16.707-2.3867-11.508-0.90234-23.016 9.2812-30.547 5.0664-3.6094 11.223-5.3516 17.43-4.9375 6.207 0.41797 12.078 2.9648 16.617 7.2188 4.168 3.8242 6.9609 8.9102 7.9531 14.477zm-2.918 34.102c0.48438-0.35938 0.94531-0.75 1.3789-1.168 0.63672-0.53125 1.2734-1.168 1.8555-1.75 0.58203-0.58203 1.168-1.2188 1.75-1.8555 0.58203-0.63672 0.63672-0.74219 0.95312-1.1133h0.003906c1.3945-1.8008 2.6367-3.7188 3.7109-5.7266 0.36328-0.66797 0.68359-1.3594 0.95703-2.0703 3.4492-0.98438 7.0156-1.5039 10.605-1.5391h1.1133c3.7617 0.011719 7.5039 0.51172 11.137 1.4883l0.95312 0.26562c0 0.63672 0.58203 1.2734 0.90234 1.9102v-0.003906c1.0742 2.0117 2.3164 3.9258 3.7148 5.7266 0.31641 0.37109 0.63672 0.79687 0.95312 1.1133 0.31641 0.31641 1.1133 1.2734 1.75 1.8555 0.63672 0.58203 1.2188 1.2188 1.8555 1.75v0.003906c0.4375 0.41797 0.89453 0.80469 1.3789 1.1641 1.2852 1.0625 2.6484 2.0195 4.0859 2.8672-3.5039 1.3359-6.8633 3.0234-10.023 5.0352-6.3906 4.0742-12.023 9.2227-16.652 15.223-2.3867-3.082-5.0508-5.9414-7.957-8.5391-5.4453-5.0508-11.797-9.0234-18.719-11.719 1.5078-0.85156 2.9453-1.8281 4.293-2.918zm48.258-12.57c-14.426-19.676 0.74219-48.738 26.25-42.852 27.629 6.3633 26.516 47.41-1.168 52.555l0.007812 0.003906c-7.4609 1.5938-15.246-0.23438-21.215-4.9844-1.4023-1.4805-2.6953-3.0586-3.8711-4.7227zm43.328 12.727c0.63672-0.47656 1.2188-1.0078 1.8047-1.5391l1.75-1.6445c0.47656-0.47656 1.0078-1.0078 1.4844-1.5898l1.3242-1.5898h0.003906c1.1758-1.5352 2.2227-3.168 3.1289-4.8789 0.37109-0.57031 0.6875-1.1719 0.95312-1.8008 0.21875-0.41406 0.41406-0.83984 0.58594-1.2734 0.29688-0.046875 0.60156-0.046875 0.89844 0 3.4609-0.91797 7.0273-1.3828 10.609-1.3789h1.6445c3.5938 0.09375 7.1602 0.66406 10.605 1.6953 0 0.63672 0.58203 1.2734 0.90234 1.9102 1.0742 2.0117 2.3164 3.9258 3.7109 5.7266 0.31641 0.37109 0.63672 0.79688 0.95313 1.1133 0.31641 0.31641 1.1133 1.2734 1.75 1.8555 0.63672 0.58203 1.2188 1.2188 1.8555 1.75l0.003906 0.003906c0.43359 0.41797 0.89453 0.80469 1.3789 1.1641 1.2812 1.0625 2.6484 2.0195 4.082 2.8672-6.9219 2.6953-13.273 6.668-18.723 11.719-2.9023 2.5977-5.5664 5.457-7.9531 8.5391-4.6406-5.9883-10.273-11.137-16.652-15.223-3.1602-2.0117-6.5195-3.6992-10.023-5.0352 1.3633-0.70312 2.6758-1.5 3.9258-2.3867zm45.289-16.281 0.003906 0.003906c-2.9688-5.2461-4.0898-11.332-3.1836-17.289 1.2695-8.5703 6.543-16.02 14.199-20.07 7.6562-4.0469 16.785-4.207 24.578-0.42969 7.7969 3.7773 13.324 11.039 14.895 19.559 1.5664 8.5195-1.0156 17.273-6.9531 23.578-5.9414 6.3047-14.527 9.4062-23.121 8.3477-8.5977-1.0547-16.18-6.1406-20.414-13.695zm-2.7578-75.73 0.003907 0.003906c2.0273-7.418 7.0391-13.656 13.84-17.238 8.0234-4.1484 17.598-3.9766 25.465 0.45703 7.8672 4.4375 12.969 12.539 13.57 21.555-8.207 4.8008-14.289 12.531-17.023 21.637-3.1758-0.90234-6.4609-1.3477-9.7578-1.3281-3.4453-0.015625-6.875 0.46875-10.184 1.4336-2.668-8.8906-8.5742-16.461-16.547-21.215-0.011719-1.7852 0.20312-3.5664 0.63672-5.3008zm-28.527 11.828c2.7344-0.91797 5.6016-1.3828 8.4844-1.3789 3.1133-0.003906 6.2031 0.55469 9.1211 1.6445 8.5469 3.0039 14.965 10.164 17.023 18.984-1.7422 1.0312-3.3594 2.2617-4.8242 3.6602-4.0117 3.4727-7.2148 7.7812-9.3867 12.621-2.1367 4.7734-3.2383 9.9414-3.2344 15.168-2.7969 0.97656-5.7383 1.4805-8.6992 1.4844-2.7539 0.011719-5.4922-0.41797-8.1133-1.2734 0.011719-5.2031-1.0742-10.352-3.1836-15.113-2.1484-4.9258-5.375-9.3125-9.4375-12.832-1.6289-1.4883-3.4062-2.8047-5.3047-3.9258 2.2188-8.9258 8.8359-16.105 17.555-19.039zm-63.109-11.668c2.0586-7.957 7.6172-14.551 15.113-17.922 15.91-7.1602 37.121 4.3477 37.652 22.699l0.003906-0.003906c-8.2383 4.7656-14.332 12.512-17.023 21.637-3.1758-0.89844-6.4609-1.3438-9.7578-1.3242-3.4453-0.015625-6.875 0.46875-10.184 1.4336-2.668-8.8945-8.5742-16.461-16.547-21.215-0.027344-1.8477 0.22266-3.6875 0.74219-5.4609zm-28.691 11.668c2.7461-0.95703 5.6328-1.4414 8.5391-1.4297 3.1133 0.007812 6.2031 0.5625 9.1211 1.6406 8.5117 3.0586 14.91 10.195 17.023 18.988-1.7422 1.0312-3.3633 2.2578-4.8242 3.6602-4.0195 3.4844-7.2227 7.8125-9.3867 12.672-2.1367 4.7734-3.2383 9.9414-3.2344 15.168-5.4727 1.8359-11.395 1.8359-16.867 0 0.003907-5.2266-1.0977-10.395-3.2344-15.168-2.1523-4.8984-5.3555-9.2617-9.3867-12.781-1.6211-1.4922-3.3984-2.8086-5.3008-3.9219 2.2695-8.8516 8.8828-15.941 17.551-18.828zm-63.16-11.824c1.6094-6.0195 5.2188-11.312 10.234-15.008 5.1523-3.8789 11.543-5.7461 17.973-5.2539 6.4297 0.49219 12.457 3.3125 16.961 7.9297 4.5 4.6172 7.1641 10.715 7.4922 17.156-8.207 4.7617-14.277 12.484-16.969 21.586-3.1758-0.90234-6.4609-1.3477-9.7578-1.3281-3.4688-0.023438-6.918 0.47656-10.238 1.4844-2.6523-8.8789-8.5391-16.449-16.492-21.211 0.035156-1.8125 0.30469-3.6133 0.79688-5.3555zm-46.879 37.121h-0.003906c0.015625-7.1133 2.8477-13.93 7.875-18.957 5.0312-5.0312 11.848-7.8633 18.961-7.8789 3.1133 0.011719 6.2031 0.56641 9.1211 1.6445 8.5234 3.0234 14.922 10.18 16.973 18.988-1.7031 1.0664-3.3008 2.2891-4.7734 3.6562-4.0312 3.4883-7.2188 7.8398-9.3359 12.73-2.1719 4.7773-3.293 9.9688-3.2852 15.219-2.7969 0.97656-5.7383 1.4805-8.6992 1.4844-1.0781 0.082031-2.1562 0.082031-3.2344 0-6.543-0.81641-12.559-4.0039-16.906-8.9609-4.3516-4.9531-6.7305-11.332-6.6953-17.926zm-25.723 99.859c1.9102-29.434 19.305-53.512 42-59.289 3.4609-0.91797 7.0273-1.3828 10.609-1.3789h1.6953c3.5938 0.089844 7.1641 0.66016 10.605 1.6953 0.26562 0.63672 0.58203 1.2734 0.90234 1.9102 1.0742 2.0117 2.3164 3.9258 3.7109 5.7266 0.31641 0.37109 0.63672 0.79688 0.95312 1.1133 0.31641 0.31641 1.1133 1.2734 1.75 1.8555 0.63672 0.58203 1.2188 1.2188 1.8555 1.75l0.003906 0.003906c0.43359 0.41797 0.89453 0.80469 1.3789 1.1641 1.2812 1.0625 2.6484 2.0195 4.082 2.8672-6.9219 2.7188-13.285 6.6914-18.773 11.719-3.5156 3.2031-6.6953 6.7578-9.4922 10.605-4.457 6.1133-8.0273 12.828-10.605 19.941zm46.137 25.402c0.30078-4.9961 1.0977-9.9531 2.3867-14.793 0.88672-3.625 2.0586-7.1719 3.5-10.609 3.0664-7.3633 7.4336-14.117 12.887-19.938 4.1016-4.3203 8.9062-7.9062 14.215-10.609 4.7383-2.3984 9.8828-3.9062 15.168-4.4531 1.4648-0.10547 2.9336-0.10547 4.3984 0 2.6562-0.003906 5.3047 0.26172 7.9023 0.79688 4.0625 0.72656 7.9922 2.0508 11.668 3.9219 5.2969 2.6914 10.09 6.2773 14.16 10.609 2.1445 2.2461 4.1133 4.6562 5.8867 7.2109 1.168 1.6172 2.25 3.3008 3.2344 5.0391 1.0625 1.9102 2.1211 3.8711 3.0234 5.8867 0.27734 0.58594 0.52734 1.1875 0.74219 1.8008 1.4766 3.4336 2.6641 6.9805 3.5547 10.609 1.2852 4.8398 2.0859 9.793 2.3867 14.793zm175.01-14.797v0.003906c-1.0977 4.8633-1.793 9.8125-2.0664 14.793h-57.223c-0.27734-4.9805-0.96875-9.9297-2.0703-14.793-1.793-8.1875-4.8125-16.055-8.9609-23.336 1.7734-2.5508 3.7422-4.9648 5.8867-7.2109 4.0703-4.3281 8.8633-7.918 14.16-10.609 3.5898-1.7969 7.4062-3.0977 11.348-3.8711 2.793-0.57422 5.6367-0.85937 8.4844-0.84766 1.3086-0.082031 2.6172-0.082031 3.9258 0 5.5469 0.44531 10.953 1.9766 15.91 4.5078 5.2969 2.6914 10.09 6.2773 14.16 10.605 1.9336 2.3398 3.6875 4.8203 5.25 7.4258-4.1484 7.2812-7.168 15.148-8.9648 23.336zm8.8047 14.797c0.30859-4.9922 1.0898-9.9492 2.332-14.793 0.91406-3.6211 2.1016-7.168 3.5547-10.609 0.21484-0.61328 0.46094-1.2148 0.74219-1.8008 0.95312-2.0156 1.9102-3.9766 3.0234-5.832v-0.003907c0.96484-1.832 2.043-3.6055 3.2344-5.3008 1.7734-2.5547 3.7422-4.9648 5.8867-7.2148 4.0703-4.3281 8.8594-7.9141 14.16-10.605 4.6367-2.293 9.6484-3.7305 14.797-4.2422 1.4805-0.10547 2.9688-0.10547 4.4531 0 6.8047 0.011719 13.508 1.6289 19.57 4.7188 5.3047 2.7031 10.109 6.2891 14.211 10.609 5.457 5.8203 9.8203 12.574 12.887 19.938 1.4375 3.4453 2.625 6.9922 3.5547 10.609 1.2422 4.8438 2.0234 9.8008 2.332 14.793zm110.25-25.402c-2.5781-7.1133-6.1484-13.824-10.605-19.938-2.7969-3.8477-5.9766-7.4023-9.4922-10.609-5.4727-5.043-11.84-9.0156-18.773-11.719 1.3711-0.80469 2.6836-1.707 3.9219-2.7031 0.63672-0.47656 1.2188-1.0078 1.8047-1.5391l1.75-1.6445c0.47656-0.47656 1.0078-1.0078 1.4844-1.5898l1.3242-1.5898v-0.003906c1.1953-1.5312 2.2617-3.1641 3.1836-4.8789 0.37109-0.57031 0.69141-1.1719 0.95312-1.8008 0.21875-0.41406 0.41406-0.83984 0.58594-1.2734 3.3438-0.96875 6.8047-1.4844 10.289-1.5391h1.168-0.003906c3.7852 0.003906 7.5469 0.51953 11.191 1.5391 22.379 6.0469 39.508 29.965 41.367 59.133z"/> <g clip-path="url(#a)"> <path d="m400 148.09c-66.812 0-130.88 26.539-178.12 73.781s-73.781 111.31-73.781 178.12c0 66.809 26.539 130.88 73.781 178.12 47.242 47.242 111.31 73.781 178.12 73.781 66.809 0 130.88-26.539 178.12-73.781 47.242-47.242 73.781-111.31 73.781-178.12 0-66.812-26.539-130.88-73.781-178.12-47.242-47.242-111.31-73.781-178.12-73.781zm0 493.2c-63.996 0-125.37-25.422-170.62-70.676-45.254-45.25-70.676-106.62-70.676-170.62s25.422-125.37 70.676-170.62 106.63-70.676 170.62-70.676 125.37 25.422 170.62 70.676c45.254 45.254 70.676 106.63 70.676 170.62-0.070313 63.973-25.516 125.31-70.754 170.54-45.234 45.238-106.57 70.684-170.54 70.754z"/> </g> </g>
</svg>