<?xml version="1.0" encoding="UTF-8"?>
<!-- Uploaded to: SVG Find, www.svgrepo.com, Generator: SVG Find Mixer Tools -->
<svg fill="#000000" width="800px" height="800px" version="1.1" viewBox="144 144 512 512" xmlns="http://www.w3.org/2000/svg">
 <g>
  <path d="m609.92 230.46c0-22.25-18.137-40.387-40.387-40.387h-339.07c-22.25 0-40.387 18.137-40.387 40.387v339.07c0 22.25 18.137 40.387 40.387 40.387h339.06c22.25 0 40.391-18.137 40.391-40.391zm-403.05 0c0-13.012 10.582-23.594 23.594-23.594h339.06c13.02 0 23.598 10.582 23.598 23.594v20.992h-386.25zm386.25 339.07c0 13.016-10.578 23.594-23.594 23.594h-339.07c-13.012 0-23.594-10.578-23.594-23.594v-301.28h386.25z"/>
  <path d="m248.86 221.4c-1.0078 0.41797-1.9297 1.0078-2.6875 1.8477-1.5938 1.5117-2.5195 3.6953-2.5195 5.8789 0 2.2656 0.92187 4.4492 2.5195 5.9609 0.75391 0.75391 1.6797 1.4258 2.6875 1.8477 1.0078 0.41797 2.0977 0.58594 3.1914 0.58594 2.2656 0 4.3672-0.83984 5.9609-2.4336s2.4336-3.6953 2.4336-5.9609c0-2.1836-0.83984-4.3672-2.4336-5.8789-2.3516-2.3516-6.0469-3.1094-9.1523-1.8477z"/>
  <path d="m273.29 223.25c-1.5938 1.5117-2.5195 3.6953-2.5195 5.8789 0 1.1758 0.25 2.1836 0.67188 3.2734 0.41797 1.0078 1.0078 1.9297 1.8477 2.6875 1.5117 1.5938 3.6953 2.4336 5.8789 2.4336 0.58594 0 1.1758 0 1.6797-0.16797 0.50391-0.082031 1.0898-0.25 1.5938-0.41797 0.50391-0.25 0.92188-0.50391 1.4258-0.75391 0.41797-0.33594 0.83984-0.67188 1.2578-1.0898 0.75391-0.75391 1.4258-1.6797 1.8477-2.6875 0.41797-1.0898 0.58594-2.0977 0.58594-3.2734 0-2.1836-0.83984-4.3672-2.4336-5.8789-3.1016-3.1953-8.7266-3.1133-11.836-0.003906z"/>
  <path d="m300.41 223.25c-1.5938 1.5117-2.4336 3.6953-2.4336 5.8789 0 2.2656 0.83984 4.4492 2.4336 5.9609 1.5117 1.5938 3.6953 2.4336 5.9609 2.4336 2.1836 0 4.3672-0.83984 5.8789-2.4336 0.41797-0.41797 0.75391-0.83984 1.0898-1.2578 0.25-0.50391 0.50391-0.92188 0.75391-1.4258 0.16797-0.50391 0.33594-1.0898 0.41797-1.5938 0.16797-0.50391 0.16797-1.0898 0.16797-1.6797 0-2.1836-0.83984-4.3672-2.4336-5.8789-3.1055-3.1953-8.7305-3.1133-11.836-0.003906z"/>
  <path d="m327.03 476.49c1.5117 1.2578 3.3594 1.8477 5.207 1.8477 2.4336 0 4.8711-1.0898 6.5508-3.1914 2.9375-3.6094 2.3516-8.9023-1.3438-11.84l-40.891-32.746 40.891-32.746c3.6094-2.8555 4.1992-8.1445 1.3438-11.84-2.8555-3.6094-8.2305-4.1992-11.84-1.3438l-49.121 39.297c-2.0156 1.5938-3.1914 4.0312-3.1914 6.5508s1.1758 4.9531 3.1914 6.5508z"/>
  <path d="m461.13 475.23c1.6797 2.0977 4.1133 3.1914 6.5508 3.1914 1.8477 0 3.6953-0.58594 5.207-1.8477l49.121-39.297c2.0156-1.5938 3.1914-4.0312 3.1914-6.5508s-1.1758-4.9531-3.1914-6.5508l-49.121-39.297c-3.6094-2.9375-8.9023-2.3516-11.84 1.3438-2.9375 3.6094-2.2656 8.9023 1.3438 11.84l40.891 32.746-40.891 32.746c-3.5312 2.7734-4.1172 8.0664-1.2617 11.676z"/>
  <path d="m353.56 536.53c1.0898 0.50391 2.2656 0.67188 3.3594 0.67188 3.1914 0 6.2969-1.8477 7.7266-5.0391l86.152-196.4c1.8477-4.2812-0.082031-9.2383-4.2812-11.082-4.2812-1.8477-9.2383 0.082031-11.082 4.2812l-86.156 196.57c-1.9297 4.1992 0 9.1523 4.2812 11z"/>
 </g>
</svg>