<?xml version="1.0" encoding="UTF-8"?>
<!-- Uploaded to: SVG Find, www.svgrepo.com, Generator: SVG Find Mixer Tools -->
<svg width="800px" height="800px" version="1.1" viewBox="144 144 512 512" xmlns="http://www.w3.org/2000/svg">
 <defs>
  <clipPath id="a">
   <path d="m148.09 148.09h503.81v503.81h-503.81z"/>
  </clipPath>
 </defs>
 <g clip-path="url(#a)">
  <path d="m428.11 386.79-4.4023-2.8125-4.2969 2.9688c-11.453 7.9023-27.418 7.9023-38.871 0l-4.2969-2.9688-4.4023 2.8125c-15.168 9.7031-24.234 26.199-24.234 44.23l0.31641 8.9102h104.27l0.21094-8.9102c0-18.031-9.0703-34.523-24.289-44.23zm-64.117 37.387c1.5391-8.3242 5.9414-15.855 12.516-21.32 14.371 7.6914 32.613 7.6914 46.988 0 6.5742 5.4609 10.977 12.992 12.516 21.32zm36.012-35.848c13.895 0 25.242-11.297 25.242-25.242 0-13.949-11.297-25.242-25.242-25.242-13.949 0-25.242 11.297-25.242 25.242-0.003906 13.945 11.348 25.242 25.242 25.242zm0-34.738c5.25 0 9.4922 4.2422 9.4922 9.4922s-4.2422 9.4922-9.4922 9.4922-9.4922-4.2422-9.4922-9.4922c-0.003906-5.25 4.293-9.4922 9.4922-9.4922zm210.7 5.1992c-20.047 0-36.75 14.371-40.465 33.359l-81.402-0.003906c-1.6445-18.719-9.0703-35.742-20.469-49.375l23.227-23.227c7.0547 5.5156 15.91 8.8594 25.508 8.8594 22.75 0 41.207-18.508 41.207-41.207 0-22.75-18.508-41.207-41.207-41.207-22.75 0-41.207 18.508-41.207 41.207 0 7.4258 2.0156 14.32 5.4102 20.363l-24.078 24.078c-13.629-11.402-30.652-18.828-49.375-20.469v-40.516l0.003906-40.891c18.984-3.7109 33.359-20.418 33.359-40.465-0.003906-22.699-18.457-41.207-41.207-41.207s-41.207 18.508-41.207 41.207c0 20.047 14.371 36.75 33.359 40.465v81.402c-18.719 1.6445-35.742 9.0703-49.375 20.469l-23.918-23.914c3.8164-6.2578 6.0469-13.523 6.0469-21.371 0-22.75-18.508-41.207-41.207-41.207-22.75 0-41.207 18.508-41.207 41.207 0 22.75 18.508 41.207 41.207 41.207 9.2266 0 17.711-3.0742 24.555-8.2188l23.387 23.387c-11.402 13.629-18.828 30.652-20.469 49.375l-81.406-0.003906c-3.7109-18.984-20.418-33.359-40.465-33.359-22.699 0.054688-41.207 18.508-41.207 41.262 0 22.75 18.508 41.207 41.207 41.207 20.047 0 36.75-14.371 40.465-33.359h81.406c1.6445 18.719 9.0703 35.742 20.469 49.375l-23.387 23.387c-6.8398-5.0898-15.328-8.168-24.555-8.168-22.75 0-41.207 18.508-41.207 41.207 0 22.75 18.508 41.207 41.207 41.207 22.75 0 41.207-18.508 41.207-41.207 0-7.8477-2.2266-15.168-6.0469-21.371l23.918-23.918c13.629 11.402 30.652 18.828 49.375 20.469l-0.003906 81.406c-18.984 3.7109-33.359 20.418-33.359 40.465 0 22.75 18.508 41.207 41.207 41.207 22.75 0 41.207-18.508 41.207-41.207 0-20.047-14.371-36.75-33.359-40.465l0.003906-81.406c18.719-1.6445 35.742-9.0703 49.375-20.469l23.441 23.441c-5.0898 6.8398-8.168 15.328-8.168 24.5 0 22.75 18.508 41.207 41.207 41.207 22.75 0 41.207-18.508 41.207-41.207s-18.508-41.207-41.207-41.207c-7.8477 0-15.168 2.2266-21.426 6.0977l-23.918-23.918c11.402-13.629 18.828-30.652 20.469-49.375h81.406c3.7109 18.984 20.418 33.359 40.465 33.359 22.75 0 41.207-18.508 41.207-41.207-0.003906-22.805-18.512-41.258-41.211-41.258zm-236.15-169.49c0-14.055 11.453-25.457 25.508-25.457 14.055 0 25.457 11.402 25.457 25.457 0 14.055-11.402 25.508-25.457 25.508-14.105 0-25.508-11.453-25.508-25.508zm-185.24 236.15c-14.055 0-25.457-11.453-25.457-25.508 0-14.055 11.402-25.457 25.457-25.457 14.055 0 25.457 11.402 25.457 25.457 0.050782 14.105-11.402 25.508-25.457 25.508zm327.79-163.71c14.055 0 25.508 11.453 25.508 25.508s-11.453 25.457-25.508 25.457-25.457-11.402-25.457-25.457c0.003906-14.105 11.402-25.508 25.457-25.508zm-233.45 50.062c-14.055 0-25.457-11.453-25.457-25.457 0-14.055 11.402-25.457 25.457-25.457 14.055 0 25.457 11.402 25.457 25.457 0.050782 14.004-11.402 25.457-25.457 25.457zm0 227.35c-14.055 0-25.457-11.453-25.457-25.457 0-14 11.402-25.508 25.457-25.508 14.055 0 25.457 11.453 25.457 25.508 0 14.055-11.402 25.457-25.457 25.457zm141.81 71.539c0 14.055-11.402 25.457-25.457 25.457-14.055 0-25.508-11.402-25.508-25.457 0-14.055 11.453-25.508 25.508-25.508 14.055 0 25.457 11.457 25.457 25.508zm113.76-94.395c0 14.055-11.453 25.457-25.508 25.457s-25.457-11.453-25.457-25.457c0-14 11.402-25.457 25.457-25.457 14.105-0.054688 25.508 11.402 25.508 25.457zm-139.21-42.801c-40.516 0-73.504-32.984-73.504-73.504 0-40.516 32.984-73.504 73.504-73.504 40.516 0 73.504 32.984 73.504 73.504-0.003906 40.52-32.988 73.504-73.504 73.504zm210.7-48.047c-14.055 0-25.457-11.453-25.457-25.508 0-14.055 11.453-25.457 25.457-25.457 14.055 0 25.457 11.402 25.457 25.457 0 14.105-11.402 25.508-25.457 25.508z"/>
 </g>
</svg>