<?xml version="1.0" encoding="UTF-8"?>
<!-- Uploaded to: SVG Find, www.svgrepo.com, Generator: SVG Find Mixer Tools -->
<svg width="800px" height="800px" version="1.1" viewBox="144 144 512 512" xmlns="http://www.w3.org/2000/svg">
 <defs>
  <clipPath id="a">
   <path d="m148.09 162h503.81v476h-503.81z"/>
  </clipPath>
 </defs>
 <path d="m370.43 460.43-2.3203 0.92969c-3.5469 1.4453-5.25 5.4922-3.8047 9.0352 1.4414 3.5469 5.5156 5.2461 9.0273 3.8047l2.2188-0.89062c7.2344-2.875 15.441-6.1367 19.688-14.516 3.6953-7.2852 2.9219-16.684-2.0625-25.148-8.0273-13.625-24.496-21.352-40.148-18.816-3.832 0.62109-7.5312 1.7656-11.113 2.875-16.746 5.1719-19.578 3.7227-24.117-12.828-2.0977-7.6289-4.4648-16.277-11.875-21.82-12.422-9.2852-30.969-2.3203-37.781 11.027-2.9648 5.8125-2.957 11.82-2.9492 16.648 0.011719 7.043-0.39844 8.4141-2.957 9.7734-10.129 5.3672-25.445 13.477-16.051 34.477 6.4688 14.426 20.949 21.758 25.984 33.059 5.8633 13.16 0.47656 34.961 15.488 47.297 12.383 10.188 30.387 5.9102 41.035-3.332 13.312-11.555 17.969-28.562 26.148-41.668 2.0234-3.2461 1.0352-7.5234-2.2148-9.5469-3.2539-2.0352-7.5234-1.0391-9.5469 2.2109-8.5078 13.625-12.809 29.289-23.469 38.535-6.293 5.4648-16.945 8.207-23.156 3.0977-5.2227-4.293-6.0703-12.09-7.0508-21.117-2.1133-19.477-4.5547-25.398-19.008-39.75-21.555-21.391-13.043-24.984-1.6719-31.008 15.43-8.1836 7.6719-24.367 11.762-32.367 1.8086-3.5352 5.6172-6.4375 9.7109-7.3906 17.551-4.043 9.5156 27.562 27.855 38.219 9.418 5.4688 19.273 2.4219 27.961-0.26562 3.2773-1.0117 6.3672-1.9688 9.25-2.4414 9.9258-1.6016 20.863 3.4961 25.98 12.176 1.9844 3.375 3.4648 8.2539 1.6445 11.844-1.8867 3.6953-6.7852 5.6406-12.457 7.8984z"/>
 <g clip-path="url(#a)">
  <path d="m653.77 335.33-4.4922-31.84c-1.2656-8.7852-7.1641-16.773-17.012-19.73v-54.125c3.6719-2.5781 5.9883-6.7734 5.9883-11.609 0-7.043-4.8438-12.816-11.781-14.039l-92.406-16.293c-3.7773-0.67187-7.3633 1.8516-8.0273 5.6211-0.66797 3.7695 1.8477 7.3633 5.6172 8.0273l92.664 16.352-0.25781 0.72266-232.13 40.812-231.9-40.898 0.25781-0.72266 232.13-40.816 94.77 16.715c3.7617 0.66797 7.3633-1.8594 8.0273-5.6211 0.66797-3.7695-1.8477-7.3672-5.6172-8.0273l-94.777-16.711c-1.8008-0.31641-3.6133-0.31641-5.4258 0l-231.51 40.816c-6.9375 1.2266-11.781 7-11.781 14.043 0 7.043 4.8438 12.816 11.781 14.043l85.137 15.008v16.758c0 3.8281 3.0977 6.9297 6.9297 6.9297s6.9297-3.1016 6.9297-6.9297v-14.312l132.65 23.383c1.7266 0.30469 3.5703 0.32812 5.4336 0l132.52-23.359v58.867c-6.4688 6.0156-52.664 14.547-135.3 14.547-82.633 0-128.83-8.5312-135.3-14.547v-24.059c0-3.8281-3.0977-6.9297-6.9297-6.9297s-6.9297 3.1016-6.9297 6.9297v25.062c0 3.1211 1.1836 5.8633 3.6055 8.3086-43.898 50.438-58.746 119.88-38.496 184.52 1.1367 3.6484 5.0078 5.6875 8.6836 4.5391 3.6523-1.1445 5.6836-5.0312 4.5391-8.6836-19.09-60.945-4.6016-126.5 37.629-173.48 8.0703 2.8164 19.391 5.0938 34.535 7.0312 26.082 3.3359 61.113 5.1719 98.66 5.1719 14.125 0 28.812-0.21094 43.223-0.73828 3.0859 4.1797 5.6523 8.7109 7.3906 13.609 3.2344 9.1406 4.5273 19.785 8.6953 29.914 4.4336 10.664 14.109 22.457 27.934 23.578 0.74609 0.0625 1.4961 0.09375 2.2461 0.09375 3.5586 0 7.1875-0.70703 10.812-2.1094 3.5664-1.3789 5.3477-5.3906 3.9648-8.9609-1.375-3.5703-5.4219-5.3477-8.9609-3.9648-2.4492 0.94531-4.7383 1.3008-6.9219 1.125-7.6328-0.62109-13.418-8.2031-16.273-15.062-3.6289-8.8359-4.8672-19.133-8.4336-29.238-1.2031-3.3906-2.7656-6.6016-4.4883-9.7148 29.871-1.6641 57.047-4.9805 73.535-11.059 6.2617 6.9297 8.4531 9.2188 14.809 18.551-9.2344 11.27-20.219 21.035-30.754 29.926-2.9219 2.4688-3.2891 6.8398-0.82031 9.7656 2.457 2.9219 6.8203 3.3008 9.7656 0.82422 9.9844-8.4297 20.316-17.727 29.484-28.285 13.324 23.152 21.242 49.004 23.215 75.75-31.09-5.4531-64.223 9.9805-79.773 37.699-6.6602 12.086-9.7578 25.375-11.91 36.781-0.71094 3.7617 1.7578 7.3867 5.5234 8.0938 3.7773 0.75 7.3828-1.7578 8.0938-5.5234 1.9492-10.332 4.7148-22.285 10.406-32.613 12.91-23.027 42.059-36.082 67.828-30.344 0.11719 0.027344 0.23828 0.050781 0.35547 0.078125 0 0.55469 0.003906 1.1133 0 1.668-1.5938 112.02-102.5 192.79-210.18 173.73-0.5625-2.8008-0.78516-5.5547-0.67187-8.4492 0.59375-14.434 12.613-30.051 27.82-29.59 12.395 0.42188 24.723 10.891 40.258 12.48 17.492 1.918 35.926-8.3828 46.898-26.125 7.8633-12.727 11.281-27.148 13.59-39.586 0.69531-3.7656-1.7852-7.3789-5.5508-8.082-3.7891-0.70312-7.375 1.7852-8.082 5.5508-2.0703 11.176-5.0898 24.051-11.746 34.828-6.707 10.852-19.66 21.145-33.668 19.633-12.762-1.3047-25.266-12-41.203-12.551-23.809-0.82031-41.301 21.887-42.16 42.887-0.078126 2 0.12109 3.957 0.27734 5.9219-30.66-7.9219-58.586-23.793-81.227-46.438-10.637-10.629-19.887-22.535-27.496-35.387-1.9414-3.293-6.1836-4.3789-9.4961-2.4336-3.2891 1.9492-4.3789 6.1992-2.4297 9.4922 8.1953 13.852 18.164 26.684 29.621 38.129 36.934 36.941 86.059 56.438 136.76 56.438 106.73 0 195.21-87.512 192.55-197.46v-0.003906c-1.0156-44.539-17.309-87.715-47.559-122.29 2.5234-2.3633 3.9102-4.9922 3.9102-7.9297v-62.312l77.062-13.586v50.289c-8.832 2.6914-15.707 10.242-17.02 19.734l-4.4883 31.812c-0.52734 3.7539 0.59375 7.5469 3.0781 10.406 2.4844 2.8555 6.0781 4.4961 9.8672 4.4961h30.973c3.7891 0 7.3906-1.6406 9.875-4.5 2.4844-2.8633 3.6094-6.6562 3.0781-10.406zm-43.016 1.043 4.3594-30.941c0.70312-5.0859 5.1172-8.918 10.258-8.918 5.1562 0 9.4414 3.7695 10.191 8.9414l4.6289 30.918z"/>
 </g>
</svg>