<?xml version="1.0" encoding="UTF-8"?>
<!-- Uploaded to: SVG Find, www.svgrepo.com, Generator: SVG Find Mixer Tools -->
<svg fill="#000000" width="800px" height="800px" version="1.1" viewBox="144 144 512 512" xmlns="http://www.w3.org/2000/svg">
 <path d="m618.21 307.89c7.7617-7.7617 12.121-18.293 12.121-29.27 0-10.973-4.3594-21.492-12.121-29.254l-67.59-67.59c-7.7617-7.7617-18.277-12.121-29.254-12.121-10.973 0-21.508 4.3594-29.27 12.121-64.961 64.961-245.36 245.36-310.32 310.32-7.7617 7.7617-12.121 18.293-12.121 29.27 0 10.973 4.3594 21.492 12.121 29.254l67.59 67.59c7.7617 7.7617 18.277 12.121 29.254 12.121 10.973 0 21.508-4.3594 29.27-12.121zm-86.527 97.676 83.035 83.035c18.09 18.09 18.09 47.422 0 65.527-18.293 18.277-42.305 42.289-60.582 60.582-18.105 18.09-47.438 18.09-65.527 0l-83.035-83.035 11.133-11.133 83.035 83.035c11.949 11.949 31.316 11.949 43.25 0 18.293-18.293 42.305-42.305 60.598-60.598 11.949-11.934 11.949-31.301 0-43.25l-83.035-83.035 11.133-11.133zm75.398-108.81-310.32 310.32c-4.8164 4.8164-11.336 7.5117-18.137 7.5117-6.8008 0-13.32-2.6914-18.121-7.5117 0 0-67.59-67.59-67.59-67.59-4.8164-4.8008-7.5117-11.32-7.5117-18.121 0-6.8008 2.6914-13.32 7.5117-18.137l310.32-310.32c4.8164-4.8164 11.336-7.5117 18.137-7.5117 6.8008 0 13.32 2.6914 18.121 7.5117 0 0 67.59 67.59 67.59 67.59 4.8164 4.8008 7.5117 11.32 7.5117 18.121s-2.6914 13.32-7.5117 18.137zm-341.22 275.71c-5.2109-5.2109-5.2109-13.68 0-18.879 5.2109-5.2109 13.664-5.2109 18.879 0 5.2109 5.1953 5.2109 13.664 0 18.879-5.2109 5.1953-13.664 5.1953-18.879 0zm50.805-13.066c-5.2109-5.2109-5.2109-13.664 0-18.879 5.2109-5.2109 13.664-5.2109 18.879 0 5.2109 5.2109 5.2109 13.664 0 18.879-5.2109 5.2109-13.664 5.2109-18.879 0zm-89.145-25.27c-5.1953-5.2109-5.1953-13.664 0-18.879 5.2109-5.2109 13.68-5.2109 18.879 0 5.2109 5.2109 5.2109 13.664 0 18.879-5.1953 5.2109-13.664 5.2109-18.879 0zm121.09-6.6758c-5.2109-5.2109-5.2109-13.664 0-18.879 5.2109-5.2109 13.664-5.2109 18.879 0 5.2109 5.2109 5.2109 13.664 0 18.879-5.2109 5.2109-13.664 5.2109-18.879 0zm-69.699-5.8086c-5.1953-5.2109-5.1953-13.664 0-18.879 5.2109-5.2109 13.68-5.2109 18.879 0 5.2109 5.2109 5.2109 13.664 0 18.879-5.1953 5.2109-13.664 5.2109-18.879 0zm31.945-31.945c-5.2109-5.1953-5.2109-13.664 0-18.879 5.2109-5.1953 13.664-5.1953 18.879 0 5.2109 5.2109 5.2109 13.68 0 18.879-5.2109 5.2109-13.664 5.2109-18.879 0zm-70.266-6.375c-5.2109-5.2109-5.2109-13.664 0-18.879 5.2109-5.2109 13.664-5.2109 18.879 0 5.2109 5.2109 5.2109 13.664 0 18.879-5.2109 5.2109-13.664 5.2109-18.879 0zm228.82-63.387c4.1406-4.1406 6.4727-9.7461 6.4727-15.602s-2.332-11.461-6.4727-15.602c-15.004-15.004-43.156-43.156-58.16-58.16-4.1406-4.1406-9.7461-6.4727-15.602-6.4727-5.8555 0-11.461 2.332-15.602 6.4727-13.195 13.195-36.273 36.273-49.469 49.469-4.1406 4.1406-6.4727 9.7461-6.4727 15.602 0 5.8555 2.332 11.461 6.4727 15.602l58.16 58.16c4.1406 4.1406 9.7461 6.4727 15.602 6.4727 5.8555 0 11.461-2.332 15.602-6.4727zm-11.133-11.133-49.469 49.469c-1.1797 1.1953-2.8008 1.8594-4.4727 1.8594-1.668 0-3.2734-0.66016-4.4727-1.8594l-58.16-58.16c-1.1953-1.1953-1.8594-2.8008-1.8594-4.4727 0-1.668 0.66016-3.2891 1.8594-4.4727l49.469-49.469c1.1797-1.1953 2.8008-1.8594 4.4727-1.8594 1.668 0 3.2734 0.66016 4.4727 1.8594l58.16 58.16c1.1953 1.1953 1.8594 2.8008 1.8594 4.4727 0 1.668-0.66016 3.2891-1.8594 4.4727zm-185.75 42.57c-5.2109-5.2109-5.2109-13.664 0-18.879 5.2109-5.2109 13.664-5.2109 18.879 0 5.2109 5.2109 5.2109 13.664 0 18.879-5.2109 5.2109-13.664 5.2109-18.879 0zm-4.2188-56.961-83.035-83.035c-18.09-18.09-18.09-47.422 0-65.527 18.293-18.277 42.305-42.289 60.582-60.582 18.105-18.09 47.438-18.09 65.527 0l83.035 83.035-11.133 11.133-83.035-83.035c-11.949-11.949-31.316-11.949-43.25 0l-60.598 60.598c-11.949 11.934-11.949 31.301 0 43.25l83.035 83.035-11.133 11.133zm259.15-45.816c-5.2109-5.2109-13.664-5.2109-18.879 0-5.2109 5.2109-5.2109 13.664 0 18.879 5.2109 5.2109 13.664 5.2109 18.879 0 5.2109-5.2109 5.2109-13.664 0-18.879zm31.945-31.945c-5.2109-5.2109-13.664-5.2109-18.879 0-5.2109 5.2109-5.2109 13.664 0 18.879 5.2109 5.2109 13.664 5.2109 18.879 0 5.2109-5.2109 5.2109-13.664 0-18.879zm-69.699-5.8086c-5.1953-5.2109-13.664-5.2109-18.879 0-5.1953 5.2109-5.1953 13.664 0 18.879 5.2109 5.2109 13.68 5.2109 18.879 0 5.2109-5.2109 5.2109-13.664 0-18.879zm31.945-31.945c-5.2109-5.1953-13.664-5.1953-18.879 0-5.2109 5.2109-5.2109 13.68 0 18.879 5.2109 5.2109 13.664 5.2109 18.879 0 5.2109-5.1953 5.2109-13.664 0-18.879zm-70.266-6.375c-5.2109-5.2109-13.664-5.2109-18.879 0-5.2109 5.2109-5.2109 13.664 0 18.879 5.2109 5.2109 13.664 5.2109 18.879 0 5.2109-5.2109 5.2109-13.664 0-18.879zm121.09-6.6758c-5.2109-5.2109-13.68-5.2109-18.879 0-5.2109 5.2109-5.2109 13.664 0 18.879 5.1953 5.2109 13.664 5.2109 18.879 0 5.1953-5.2109 5.1953-13.664 0-18.879zm-89.145-25.27c-5.2109-5.2109-13.664-5.2109-18.879 0-5.2109 5.2109-5.2109 13.664 0 18.879 5.2109 5.2109 13.664 5.2109 18.879 0 5.2109-5.2109 5.2109-13.664 0-18.879zm50.805-13.066c-5.2109-5.1953-13.664-5.1953-18.879 0-5.2109 5.2109-5.2109 13.68 0 18.879 5.2109 5.2109 13.664 5.2109 18.879 0 5.2109-5.1953 5.2109-13.664 0-18.879z" fill-rule="evenodd"/>
</svg>