<?xml version="1.0" encoding="UTF-8"?>
<!-- Uploaded to: SVG Find, www.svgrepo.com, Generator: SVG Find Mixer Tools -->
<svg fill="#000000" width="800px" height="800px" version="1.1" viewBox="144 144 512 512" xmlns="http://www.w3.org/2000/svg">
 <g>
  <path d="m550.02 299.98h-51.293v-27.883c0-25.664-20.875-46.555-46.555-46.555h-104.37c-25.68 0-46.555 20.891-46.555 46.555v27.883h-51.281c-18.91 0-34.273 15.367-34.273 34.258v182.65c0 18.895 15.367 34.258 34.273 34.258h10.266v8.6758c0 8.0625 6.5508 14.625 14.625 14.625h44.367c8.0781 0 14.625-6.5664 14.625-14.625l0.003906-8.6758h132.28v8.6758c0 8.0625 6.5508 14.625 14.625 14.625h44.383c8.0625 0 14.609-6.5664 14.609-14.625v-8.6758h10.266c18.91 0 34.273-15.367 34.273-34.258v-182.65c0-18.891-15.363-34.258-34.273-34.258zm-239.14-27.883c0-20.371 16.547-36.953 36.934-36.953h104.37c20.371 0 36.953 16.578 36.953 36.953v27.883h-14.957v-27.883c0-12.137-9.8555-21.996-21.98-21.996h-104.37c-12.121 0-21.98 9.8555-21.98 21.996v27.883h-14.969zm24.531 27.883v-27.883c0-6.8477 5.5742-12.406 12.391-12.406h104.37c6.832 0 12.391 5.5586 12.391 12.406v27.883zm-11.18 259.84c0 2.7695-2.2656 5.0234-5.0078 5.0234h-44.367c-2.7852 0-5.0234-2.25-5.0234-5.0234l0.003906-8.6758h54.41v8.6758zm205.93 0c0 2.7695-2.25 5.0234-5.0078 5.0234h-44.398c-2.7695 0-5.0234-2.25-5.0234-5.0234v-8.6758h54.426zm44.523-42.934c0 13.602-11.051 24.656-24.656 24.656h-300.07c-13.586 0-24.656-11.066-24.656-24.656v-182.65c0-13.602 11.066-24.656 24.656-24.656h300.07c13.602 0 24.656 11.066 24.656 24.656z"/>
  <path d="m470.94 400.02h-45.406v-45.406c0-2.6445-2.1562-4.8008-4.8008-4.8008h-41.469c-2.6758 0-4.8164 2.1406-4.8164 4.8008v45.406h-45.406c-2.6445 0-4.8164 2.1562-4.8164 4.8008v41.469c0 2.6445 2.1719 4.8008 4.8164 4.8008h45.406v45.406c0 2.6602 2.1406 4.8008 4.8164 4.8008h41.469c2.6445 0 4.8008-2.1406 4.8008-4.8008v-45.406h45.406c2.6602 0 4.8008-2.1406 4.8008-4.8008v-41.469c0-2.6445-2.1406-4.8008-4.8008-4.8008zm-4.8008 41.469h-45.406c-2.6602 0-4.8164 2.1562-4.8164 4.8008v45.406h-31.852v-45.406c0-2.6445-2.1562-4.8008-4.8008-4.8008h-45.422v-31.867h45.422c2.6445 0 4.8008-2.1562 4.8008-4.8008v-45.406h31.852v45.406c0 2.6445 2.1562 4.8008 4.8164 4.8008h45.406z"/>
 </g>
</svg>