<?xml version="1.0" encoding="UTF-8"?>
<!-- Uploaded to: SVG Find, www.svgrepo.com, Generator: SVG Find Mixer Tools -->
<svg fill="#000000" width="800px" height="800px" version="1.1" viewBox="144 144 512 512" xmlns="http://www.w3.org/2000/svg">
 <g>
  <path d="m542.17 456.44c-4.918-3.3633-10.953-4.6836-16.828-3.6875-5.8711 1-11.129 4.2422-14.66 9.0391l-38.258 51.562c-0.5 0.67188-0.89844 1.4141-1.1797 2.2031l-15.742 47.23-0.003906 0.003907c-0.035156 0.52344-0.035156 1.0508 0 1.5742l-7.8711 62.977 15.742 1.8906 7.8711-62.188 15.113-45.266 37.863-50.539h0.003906c2.3516-2.8281 6.4492-3.4453 9.5312-1.4297 3.0781 2.0117 4.1602 6.0117 2.5117 9.3008l-25.031 42.902c-1.7383 3.0195-1.2812 6.8203 1.1172 9.3438 2.3945 2.5273 6.168 3.1758 9.2734 1.5977l31.488-15.742c0.74609-0.375 1.4375-0.85156 2.0469-1.418l23.617-23.617c0.56641-0.60938 1.043-1.3008 1.4141-2.0469l36.055-72.109v0.003906c0.69531-1.4102 2.1328-2.2969 3.6992-2.2852 1.3086-0.019532 2.5391 0.59766 3.3086 1.6523 0.79297 1.0312 1.0312 2.3867 0.62891 3.6211l-26.371 85.805-29.992 44.949-38.887 25.898v0.003906c-6.5938 4.375-10.555 11.766-10.551 19.68v30.938h15.742l0.003907-30.938c0.011719-2.6328 1.3398-5.0859 3.543-6.5352l40.148-26.844h-0.003906c0.90234-0.54688 1.6602-1.3008 2.207-2.2031l31.488-47.23-0.003906-0.003906c0.46484-0.61328 0.8125-1.3047 1.0234-2.0469l26.688-86.594v0.003907c1.9414-6.0508 0.86719-12.66-2.8867-17.785s-9.7344-8.1406-16.086-8.1133c-3.6875-0.011719-7.3086 1.0039-10.449 2.9375-3.1445 1.9336-5.6875 4.707-7.3398 8.0039l-35.426 70.848-21.805 21.805-7.0859 3.543 11.73-20.152c2.875-5.0781 3.7109-11.062 2.3359-16.734s-4.8555-10.609-9.7344-13.809z"/>
  <path d="m233.27 481.95-35.426-70.848c-1.6328-3.3281-4.1641-6.1289-7.3086-8.0938-3.1445-1.9609-6.7734-3-10.48-3.0039-6.2969-0.003906-12.219 2.9805-15.961 8.043s-4.8594 11.602-3.0117 17.617l26.371 86.828c0.21094 0.74219 0.55859 1.4336 1.0234 2.0469l31.488 47.23v0.003906c0.54688 0.90234 1.3047 1.6562 2.2031 2.2031l40.148 26.844c2.1992 1.4492 3.5273 3.9023 3.543 6.5352v30.938h15.742v-30.938c0.003907-7.9141-3.957-15.305-10.547-19.68l-38.887-25.898-29.68-44.953-26.371-85.805c-0.39844-1.2344-0.16406-2.5898 0.62891-3.6211 0.76953-1.0547 2.0039-1.6719 3.3086-1.6523 1.5664-0.011719 3.0039 0.875 3.6992 2.2852l36.055 72.109v-0.003907c0.37109 0.74609 0.84766 1.4375 1.418 2.0469l23.617 23.617h-0.003906c0.61328 0.56641 1.3008 1.043 2.0469 1.418l31.488 15.742c3.1055 1.5781 6.8789 0.92969 9.2773-1.5977 2.3984-2.5234 2.8516-6.3242 1.1133-9.3438l-24.48-42.824c-1.6445-3.2891-0.5625-7.2891 2.5156-9.3008s7.1758-1.3984 9.5273 1.4297l37.863 50.539 14.957 45.184 7.8711 62.188 15.742-1.8906-7.8711-62.977 0.003906 0.003907c0.035157-0.52344 0.035157-1.0508 0-1.5742l-15.742-47.23-0.003906-0.003906c-0.28125-0.78906-0.67969-1.5312-1.1797-2.2031l-38.652-51.562c-4.5-6.9453-12.363-10.965-20.629-10.539-8.2656 0.42188-15.676 5.2227-19.441 12.594-3.7695 7.3711-3.3164 16.191 1.1836 23.137l11.57 20.309-7.0859-3.543z"/>
  <path d="m533.82 321.28h-31.488v-31.488c0-2.0859-0.83203-4.0898-2.3086-5.5664-1.4727-1.4766-3.4766-2.3047-5.5664-2.3047h-31.484c-4.3477 0-7.875 3.5234-7.875 7.8711v31.488h-31.488c-4.3477 0-7.8711 3.5234-7.8711 7.8711v31.488c0 2.0898 0.82812 4.0898 2.3047 5.5664s3.4805 2.3086 5.5664 2.3086h31.488v31.488c0 2.0859 0.83203 4.0898 2.3086 5.5664 1.4727 1.4766 3.4766 2.3047 5.5664 2.3047h31.488-0.003906c2.0898 0 4.0938-0.82812 5.5664-2.3047 1.4766-1.4766 2.3086-3.4805 2.3086-5.5664v-31.488h31.488c2.0859 0 4.0898-0.83203 5.5664-2.3086s2.3047-3.4766 2.3047-5.5664v-31.488c0-2.0859-0.82812-4.0898-2.3047-5.5664-1.4766-1.4727-3.4805-2.3047-5.5664-2.3047zm-7.8711 31.488h-31.492c-4.3477 0-7.8711 3.5234-7.8711 7.8711v31.488h-15.742v-31.488c0-2.0859-0.83203-4.0898-2.3047-5.5664-1.4766-1.4727-3.4805-2.3047-5.5664-2.3047h-31.488v-15.742h31.488c2.0859 0 4.0898-0.83203 5.5664-2.3086 1.4727-1.4727 2.3047-3.4766 2.3047-5.5664v-31.484h15.742v31.488-0.003906c0 2.0898 0.83203 4.0938 2.3047 5.5664 1.4766 1.4766 3.4805 2.3086 5.5664 2.3086h31.488z"/>
  <path d="m258.3 376.38h15.742v15.742h-15.742z"/>
  <path d="m581.05 297.66h15.742v15.742h-15.742z"/>
  <path d="m392.12 486.59h15.742v15.742h-15.742z"/>
  <path d="m466.68 173.05c-20.441 0.12109-39.848 9.0078-53.293 24.406l-13.383 14.875-13.383-14.875c-13.371-15.504-32.824-24.414-53.293-24.414-20.473 0-39.926 8.9102-53.297 24.414-12.18 14.082-19.629 31.637-21.297 50.18-1.6641 18.547 2.5352 37.148 12.008 53.18 19.195 32.27 44.359 60.59 74.156 83.441l50.379 37.785c2.8008 2.1016 6.6484 2.1016 9.4492 0l33.93-25.742-9.5273-12.516-29.125 22.121-45.5-34.559c-28.23-21.527-52.09-48.246-70.301-78.719-7.7695-13.125-11.23-28.359-9.8906-43.555 1.3438-15.195 7.418-29.59 17.371-41.148 10.465-12.078 25.66-19.016 41.645-19.016 15.98 0 31.176 6.9375 41.641 19.016l19.207 21.332c1.4922 1.6406 3.6094 2.5781 5.8281 2.5781 2.2148 0 4.332-0.9375 5.8242-2.5781l19.207-21.332c10.469-12.078 25.66-19.016 41.645-19.016 15.98 0 31.176 6.9375 41.641 19.016 9.3203 10.82 15.25 24.141 17.055 38.305 1.8047 14.164-0.59375 28.547-6.8984 41.359l14.168 7.0078c7.6094-15.66 10.465-33.207 8.2109-50.469-2.2539-17.266-9.5117-33.488-20.883-46.672-13.41-15.449-32.84-24.344-53.293-24.406z"/>
 </g>
</svg>