<?xml version="1.0" encoding="UTF-8"?>
<!-- Uploaded to: SVG Find, www.svgrepo.com, Generator: SVG Find Mixer Tools -->
<svg fill="#000000" width="800px" height="800px" version="1.1" viewBox="144 144 512 512" xmlns="http://www.w3.org/2000/svg">
 <g>
  <path d="m501.45 636.16h-202.9c-22.73 0-41.23-18.5-41.23-41.23v-389.86c0-22.73 18.5-41.23 41.23-41.23h202.8c22.73 0 41.23 18.5 41.23 41.23v389.76c0.097657 22.832-18.402 41.332-41.133 41.332zm-202.9-462.48c-17.316 0-31.391 14.07-31.391 31.387v389.76c0 17.32 14.07 31.391 31.391 31.391h202.8c17.32 0 31.391-14.07 31.391-31.391v-389.76c0-17.32-14.07-31.391-31.391-31.391z"/>
  <path d="m537.76 232.72h-275.52c-2.7539 0-4.9219-2.1641-4.9219-4.9219 0-2.7539 2.1641-4.9219 4.9219-4.9219h275.52c2.7539 0 4.9219 2.1641 4.9219 4.9219s-2.1641 4.9219-4.9219 4.9219z"/>
  <path d="m537.76 577.12h-275.52c-2.7539 0-4.9219-2.1641-4.9219-4.9219 0-2.7539 2.1641-4.9219 4.9219-4.9219h275.52c2.7539 0 4.9219 2.1641 4.9219 4.9219 0 2.7578-2.1641 4.9219-4.9219 4.9219z"/>
  <path d="m321.28 321.28c-1.2773 0-2.5586-0.49219-3.4453-1.4766l-19.68-19.68c-1.9688-1.9688-1.9688-5.0195 0-6.9883l19.68-19.68c1.9688-1.9688 5.0195-1.9688 6.9883 0s1.9688 5.0195 0 6.9883l-16.234 16.238 16.234 16.234c1.9688 1.9688 1.9688 5.0195 0 6.9883-0.98437 0.88281-2.2617 1.375-3.543 1.375z"/>
  <path d="m409.84 321.28c-1.2773 0-2.5586-0.49219-3.4453-1.4766-1.9688-1.9688-1.9688-5.0195 0-6.9883l16.234-16.234-16.234-16.234c-1.9688-1.9688-1.9688-5.0195 0-6.9883s5.0195-1.9688 6.9883 0l19.68 19.68c1.9688 1.9688 1.9688 5.0195 0 6.9883l-19.68 19.68c-0.98437 1.082-2.2656 1.5742-3.543 1.5742z"/>
  <path d="m350.8 331.12c-0.78906 0-1.4766-0.19531-2.1641-0.49219-2.4609-1.1797-3.4453-4.1328-2.1641-6.5938l29.52-59.039c1.1797-2.4609 4.1328-3.4453 6.5938-2.1641 2.4609 1.1797 3.4453 4.1328 2.1641 6.5938l-29.52 59.039c-0.88672 1.6719-2.6562 2.6562-4.4297 2.6562z"/>
  <path d="m429.52 390.16h-118.08c-2.7539 0-4.9219-2.1641-4.9219-4.9219 0-2.7539 2.1641-4.9219 4.9219-4.9219h118.08c2.7539 0 4.9219 2.1641 4.9219 4.9219-0.003906 2.7539-2.168 4.9219-4.9219 4.9219z"/>
  <path d="m429.52 429.52h-118.08c-2.7539 0-4.9219-2.1641-4.9219-4.9219 0-2.7539 2.1641-4.9219 4.9219-4.9219h118.08c2.7539 0 4.9219 2.1641 4.9219 4.9219-0.003906 2.7578-2.168 4.9219-4.9219 4.9219z"/>
  <path d="m488.56 468.88h-177.12c-2.7539 0-4.9219-2.1641-4.9219-4.9219 0-2.7539 2.1641-4.9219 4.9219-4.9219h177.12c2.7539 0 4.9219 2.1641 4.9219 4.9219 0 2.7578-2.168 4.9219-4.9219 4.9219z"/>
  <path d="m488.56 508.24h-177.12c-2.7539 0-4.9219-2.1641-4.9219-4.9219 0-2.7539 2.1641-4.9219 4.9219-4.9219h177.12c2.7539 0 4.9219 2.1641 4.9219 4.9219 0 2.7578-2.168 4.9219-4.9219 4.9219z"/>
 </g>
</svg>