<?xml version="1.0" encoding="UTF-8"?>
<!-- Uploaded to: SVG Find, www.svgrepo.com, Generator: SVG Find Mixer Tools -->
<svg fill="#000000" width="800px" height="800px" version="1.1" viewBox="144 144 512 512" xmlns="http://www.w3.org/2000/svg">
 <g>
  <path d="m400 314.86c-46.965 0-85.16 38.195-85.16 85.145s38.195 85.145 85.16 85.145c46.949 0 85.145-38.195 85.145-85.145-0.003906-46.949-38.199-85.145-85.145-85.145zm0 142.89c-31.852 0-57.781-25.898-57.781-57.75 0-31.852 25.914-57.75 57.781-57.75 31.836 0 57.766 25.898 57.766 57.75-0.003906 31.852-25.934 57.75-57.766 57.75z"/>
  <path d="m588.39 352.64-24.656-2.7383c-3.1953-10.484-7.3984-20.609-12.547-30.262l15.523-19.43c8.4062-10.516 7.5273-26.23-2-35.738l-29.191-29.191c-9.0859-9.1328-25.602-10.125-35.801-2.0312l-19.363 15.523c-9.6992-5.1641-19.82-9.3516-30.277-12.547l-2.7383-24.625c-1.4805-13.445-13.211-23.93-26.719-23.93h-41.266c-13.492 0-25.238 10.484-26.703 23.898l-2.75 24.691c-10.469 3.1953-20.594 7.4141-30.277 12.547l-19.398-15.539c-10.105-8.0625-26.621-7.1328-35.77 2l-29.188 29.219c-9.5391 9.5234-10.406 25.27-1.9844 35.738l15.508 19.43c-5.1641 9.6836-9.3672 19.805-12.547 30.262l-24.672 2.7383c-13.414 1.5117-23.898 13.258-23.898 26.719v41.266c0 13.461 10.484 25.223 23.898 26.719l24.688 2.7383c3.2109 10.484 7.4141 20.609 12.547 30.262l-15.508 19.363c-8.4219 10.547-7.543 26.262 1.9844 35.785l29.191 29.207c9.1328 9.1328 25.648 10.094 35.77 2l19.398-15.523c9.6523 5.1328 19.773 9.3203 30.262 12.516l2.7383 24.688c1.5117 13.414 13.242 23.898 26.703 23.898h41.266c13.477 0 25.238-10.484 26.719-23.898l2.7539-24.688c10.453-3.1953 20.594-7.3828 30.246-12.516l19.461 15.555c4.6289 3.6836 10.547 5.7148 16.672 5.7148 7.1641 0 14.105-2.832 19.051-7.7461l29.191-29.207c9.5234-9.5078 10.406-25.223 1.9844-35.785l-15.508-19.363c5.1484-9.6523 9.3516-19.773 12.547-30.262l24.688-2.7383c13.398-1.5117 23.898-13.258 23.898-26.719v-41.266c-0.007812-13.477-10.512-25.223-23.926-26.734zm-36.918 71.258c-5.7148 0.64453-10.422 4.7695-11.793 10.359-3.4805 14.234-9.1016 27.773-16.703 40.289-2.9922 4.9297-2.5977 11.195 0.99219 15.68l21.348 25.945-28.496 29.156-26.656-21.316c-4.4883-3.6211-10.77-4.0312-15.648-1.0078-12.516 7.5898-26.07 13.195-40.289 16.672-5.5742 1.3555-9.7148 6.0938-10.359 11.809l-3.7148 33.457-40.305 0.45703-3.7617-33.914c-0.62891-5.7148-4.7852-10.453-10.375-11.809-14.234-3.4805-27.789-9.0703-40.289-16.672-2.1875-1.3555-4.6445-2-7.1016-2-3.0391 0-6.0781 1.0078-8.5508 3.0078l-25.961 21.332-29.129-28.492 21.316-26.625c3.6055-4.4883 4-10.77 1.0078-15.68-7.5898-12.484-13.227-26.039-16.719-40.289-1.3867-5.5898-6.0938-9.7148-11.793-10.359l-33.426-3.2578-0.45703-40.746 33.883-3.7773c5.7148-0.64453 10.422-4.7695 11.793-10.359 3.4648-14.168 9.0703-27.711 16.703-40.289 2.9766-4.9297 2.582-11.164-0.99219-15.648l-21.348-25.965 28.496-29.191 26.625 21.316c4.4883 3.6055 10.738 4 15.664 1.0078 12.562-7.5898 26.121-13.227 40.305-16.703 5.5898-1.3555 9.7461-6.0625 10.375-11.777l3.2422-33.426 40.762-0.48828 3.7617 33.914c0.62891 5.7148 4.7695 10.422 10.359 11.777 14.152 3.4805 27.742 9.1016 40.32 16.703 4.9141 2.9766 11.164 2.582 15.664-1.0078l25.93-21.332 29.156 28.48-21.316 26.688c-3.6055 4.4883-4 10.738-0.99219 15.648 7.5898 12.484 13.211 26.039 16.703 40.289 1.3711 5.5898 6.0781 9.7148 11.793 10.359l33.441 3.2578 0.45703 40.777z"/>
 </g>
</svg>