<?xml version="1.0" encoding="UTF-8"?>
<!-- Uploaded to: SVG Find, www.svgrepo.com, Generator: SVG Find Mixer Tools -->
<svg fill="#000000" width="800px" height="800px" version="1.1" viewBox="144 144 512 512" xmlns="http://www.w3.org/2000/svg">
 <path d="m621.52 400c0-28.852-21.691-52.66-49.586-56.055v-92.809c0-12.832-10.449-23.281-23.281-23.281-8.9102 0-16.547 5.0898-20.469 12.461l-222.58 90.156h-84.586c-23.441 0-42.531 19.09-42.531 42.531v53.883c0 23.441 19.09 42.531 42.531 42.531h10.926v58.973c0 12.355 10.023 22.379 22.379 22.379 12.355 0 22.434-10.023 22.434-22.379l-0.003906-58.918h28.957l222.58 90.156c3.9258 7.3711 11.562 12.461 20.469 12.461 12.832 0 23.281-10.449 23.281-23.281v-92.754c27.789-3.3945 49.48-27.207 49.48-56.055zm-400.55 55.629c-15.805 0-28.691-12.832-28.691-28.691v-53.879c0-15.805 12.887-28.691 28.691-28.691h28.691v111.26zm41.844 72.816c0 4.7188-3.8164 8.5391-8.5898 8.5391-4.668 0-8.4844-3.8164-8.4844-8.5391l-0.003907-58.973h17.078zm37.441-72.816h-36.75l-0.003906-111.26h36.75zm13.84-113.59 211.34-85.594v287.17l-211.34-85.648zm244 206.82c0 5.1953-4.2422 9.4414-9.4414 9.4414-5.1953 0-9.3867-4.2422-9.3867-9.4414v-297.72c0-5.1953 4.1914-9.4414 9.3867-9.4414 5.1953 0 9.4414 4.2422 9.4414 9.4414zm13.84-106.75v-84.215c20.258 3.3398 35.742 20.949 35.742 42.109 0.003906 21.16-15.484 38.82-35.742 42.105z"/>
</svg>