<?xml version="1.0" encoding="UTF-8"?>
<!-- Uploaded to: SVG Find, www.svgrepo.com, Generator: SVG Find Mixer Tools -->
<svg fill="#000000" width="800px" height="800px" version="1.1" viewBox="144 144 512 512" xmlns="http://www.w3.org/2000/svg">
 <g>
  <path d="m267.92 430.65c0 23.09 6.0469 44.84 16.457 63.816 0.082031 0.25 0.25 0.41797 0.41797 0.67188 22.672 40.305 65.746 67.68 115.2 67.68 49.457 0 92.531-27.375 115.2-67.68 0.082031-0.25 0.33594-0.41797 0.41797-0.67188 10.496-18.895 16.457-40.641 16.457-63.816 0-23.09-6.0469-44.84-16.457-63.73-0.082032-0.25-0.33594-0.41797-0.41797-0.67188-22.672-40.305-65.746-67.594-115.2-67.594-49.457 0-92.531 27.289-115.2 67.594-0.16797 0.25-0.33594 0.41797-0.41797 0.67188-10.496 18.891-16.457 40.637-16.457 63.73zm132.08-115.29c12.762 0 26.367 17.465 35.098 46.266h-70.199c8.7344-28.801 22.336-46.266 35.102-46.266zm39.379 63.145c2.6875 13.098 4.4492 27.793 4.9531 43.832h-88.668c0.50391-16.039 2.2656-30.73 4.9531-43.832zm75.488 43.746h-53.824c-0.41797-15.617-1.9297-30.312-4.4492-43.832h46.016c6.8828 13.352 11.082 28.215 12.258 43.832zm-12.176 60.625h-46.016c2.5195-13.434 4.0312-28.215 4.4492-43.832h53.824c-1.2578 15.703-5.457 30.48-12.258 43.832zm-102.69 63.145c-12.762 0-26.367-17.465-35.098-46.266h70.199c-8.7383 28.715-22.34 46.266-35.102 46.266zm-39.383-63.145c-2.6875-13.098-4.4492-27.793-4.9531-43.832h88.586c-0.50391 16.039-2.2656 30.73-4.9531 43.832zm-75.488-43.832h53.824c0.41797 15.617 1.9297 30.312 4.4492 43.832h-46.016c-6.8828-13.352-11.164-28.129-12.258-43.832zm53.824-16.793h-53.824c1.1758-15.703 5.375-30.48 12.176-43.832h46.016c-2.5195 13.52-4.0312 28.297-4.3672 43.832zm-31.152 77.418h39.465c4.4492 16.375 10.496 30.312 17.801 40.891-23.09-7.3867-42.992-21.914-57.266-40.891zm127.13 40.895c7.3047-10.496 13.352-24.52 17.801-40.891h39.465c-14.273 18.973-34.176 33.5-57.266 40.891zm57.184-178.85h-39.465c-4.4492-16.375-10.496-30.312-17.801-40.891 23.172 7.3867 43.074 21.91 57.266 40.891zm-127.05-40.895c-7.3047 10.496-13.352 24.52-17.801 40.891h-39.465c14.273-18.977 34.176-33.5 57.266-40.891z"/>
  <path d="m569.53 190.08h-339.07c-22.25 0-40.387 18.137-40.387 40.387v339.07c0 22.25 18.137 40.387 40.387 40.387h339.06c22.25 0 40.391-18.137 40.391-40.391v-339.06c0-22.25-18.137-40.387-40.387-40.387zm-362.66 40.387c0-13.012 10.582-23.594 23.594-23.594h339.06c13.02 0 23.598 10.582 23.598 23.594v20.992h-386.25zm386.25 339.07c0 13.016-10.578 23.594-23.594 23.594h-339.07c-13.012 0-23.594-10.578-23.594-23.594v-301.28h386.25z"/>
  <path d="m246.17 223.25c-1.5938 1.5117-2.4336 3.6953-2.4336 5.8789 0 1.1758 0.16797 2.1836 0.58594 3.2734 0.41797 1.0078 1.0898 1.9297 1.8477 2.6875 1.5117 1.5938 3.6953 2.4336 5.9609 2.4336 2.1836 0 4.3672-0.83984 5.8789-2.4336 0.83984-0.75391 1.4258-1.6797 1.8477-2.6875 0.41797-1.0898 0.67188-2.0977 0.67188-3.2734 0-2.1836-0.92188-4.3672-2.5195-5.8789-3.1055-3.1914-8.7305-3.1094-11.84 0z"/>
  <path d="m283.87 222.15c-0.42188-0.25-0.92578-0.50391-1.4297-0.75391-0.50391-0.16797-1.0078-0.33594-1.5938-0.50391-2.6875-0.50391-5.625 0.41797-7.5586 2.3516-1.5117 1.5117-2.4336 3.6953-2.4336 5.8789 0 1.1758 0.25 2.1836 0.67188 3.2734 0.41797 1.0078 1.0078 1.9297 1.7617 2.6875 1.5938 1.5938 3.7773 2.4336 5.9609 2.4336 0.50391 0 1.0898 0 1.5938-0.16797 0.58594-0.082031 1.0898-0.25 1.5938-0.41797 0.50391-0.25 1.0078-0.50391 1.4258-0.83984 0.50391-0.25 0.92188-0.58594 1.3438-1.0078 0.75391-0.75391 1.3438-1.6797 1.7617-2.6875 0.41797-1.0898 0.67188-2.0977 0.67188-3.2734 0-2.1836-0.92188-4.3672-2.4336-5.8789-0.41406-0.42188-0.83203-0.75781-1.3359-1.0938z"/>
  <path d="m314.1 225.93c-0.16797-0.50391-0.41797-1.0078-0.75391-1.4258-0.33594-0.50391-0.67188-0.92187-1.0078-1.2578-3.1914-3.1914-8.8164-3.1914-11.922 0-0.33594 0.33594-0.75391 0.75391-1.0078 1.2578-0.33594 0.41797-0.58594 0.92188-0.75391 1.4258-0.25 0.50391-0.41797 1.0898-0.50391 1.5938-0.082032 0.50391-0.16797 1.0898-0.16797 1.5938 0 1.1758 0.16797 2.1836 0.67188 3.2734 0.41797 1.0078 1.0078 1.9297 1.7617 2.6875 1.5938 1.5938 3.7773 2.4336 5.9609 2.4336s4.3672-0.83984 5.9609-2.4336c0.75391-0.75391 1.3438-1.6797 1.7617-2.6875 0.41797-1.0898 0.67188-2.0977 0.67188-3.2734 0-0.50391-0.082031-1.0898-0.16797-1.5938-0.082031-0.50391-0.25-1.0898-0.50391-1.5938z"/>
 </g>
</svg>