<?xml version="1.0" encoding="UTF-8"?>
<!-- Uploaded to: SVG Find, www.svgrepo.com, Generator: SVG Find Mixer Tools -->
<svg fill="#000000" width="800px" height="800px" version="1.1" viewBox="144 144 512 512" xmlns="http://www.w3.org/2000/svg">
 <path d="m462.62 207.21h64.824c8.918 0 17.035 3.6484 22.91 9.5195 5.875 5.875 9.5195 13.988 9.5195 22.91v367.26c0 8.8906-3.6523 17-9.5391 22.887-5.8555 5.8906-13.973 9.5391-22.891 9.5391h-254.9c-8.8828 0-16.984-3.6484-22.867-9.5195l-0.054687-0.054687c-5.8672-5.8789-9.5039-13.973-9.5039-22.852v-367.26c0-8.918 3.6484-17.035 9.5195-22.91l0.62891-0.57812c5.8242-5.5391 13.688-8.9453 22.273-8.9453h64.824v-13.359c0-5.5625 4.5156-10.082 10.082-10.082h20.953c1.625-5.1016 4.457-9.668 8.1523-13.363 6.0039-6.0039 14.293-9.7188 23.438-9.7188s17.441 3.7148 23.445 9.7188c3.6953 3.6953 6.5273 8.2656 8.1523 13.363h20.945c5.5625 0 10.082 4.5156 10.082 10.082v13.359zm-47.539 94.059c-5.5625 0-10.082-4.5156-10.082-10.082 0-5.5625 4.5156-10.082 10.082-10.082h88.641c5.5625 0 10.082 4.5156 10.082 10.082 0 5.5625-4.5156 10.082-10.082 10.082zm0 251.92c-5.5625 0-10.082-4.5156-10.082-10.082 0-5.5625 4.5156-10.082 10.082-10.082h88.641c5.5625 0 10.082 4.5156 10.082 10.082 0 5.5625-4.5156 10.082-10.082 10.082zm-33.875 35.859c-5.5625 0-10.082-4.5156-10.082-10.082 0-5.5625 4.5156-10.082 10.082-10.082h122.52c5.5625 0 10.082 4.5156 10.082 10.082 0 5.5625-4.5156 10.082-10.082 10.082zm33.875-161.82c-5.5625 0-10.082-4.5156-10.082-10.082 0-5.5625 4.5156-10.082 10.082-10.082h88.641c5.5625 0 10.082 4.5156 10.082 10.082 0 5.5625-4.5156 10.082-10.082 10.082zm-33.875 35.859c-5.5625 0-10.082-4.5156-10.082-10.082 0-5.5625 4.5156-10.082 10.082-10.082h122.52c5.5625 0 10.082 4.5156 10.082 10.082 0 5.5625-4.5156 10.082-10.082 10.082zm0-125.96c-5.5625 0-10.082-4.5156-10.082-10.082 0-5.5625 4.5156-10.082 10.082-10.082h122.52c5.5625 0 10.082 4.5156 10.082 10.082 0 5.5625-4.5156 10.082-10.082 10.082zm-66.992-56.02c7.6875 0 14.688 3.1406 19.762 8.207 5.1055 5.0703 8.2422 12.074 8.2422 19.797 0 7.6875-3.1406 14.688-8.207 19.762-5.1133 5.1016-12.109 8.2422-19.797 8.2422-7.7227 0-14.727-3.1367-19.797-8.207l-0.60547-0.66016c-4.707-5.0156-7.5977-11.758-7.5977-19.137 0-7.7227 3.1367-14.727 8.207-19.797 5.0703-5.0703 12.074-8.207 19.797-8.207zm5.5625 22.441c-1.4062-1.4062-3.3789-2.2773-5.5625-2.2773-2.1719 0-4.1406 0.87891-5.5508 2.2891s-2.2891 3.3789-2.2891 5.5508c0 2.0234 0.74219 3.8633 1.9648 5.2422l0.32812 0.30859c1.4102 1.4102 3.3789 2.2891 5.5508 2.2891 2.1836 0 4.1602-0.875 5.5703-2.2734 1.3984-1.4102 2.2734-3.3867 2.2734-5.5703 0-2.1719-0.87891-4.1406-2.2773-5.5625zm-5.5625 229.48c7.6875 0 14.688 3.1406 19.762 8.207 5.1016 5.1133 8.2422 12.109 8.2422 19.797 0 7.7227-3.1367 14.727-8.207 19.797l-0.66016 0.60547c-5.0156 4.707-11.758 7.5977-19.137 7.5977-7.7227 0-14.727-3.1367-19.797-8.207-5.0703-5.0703-8.207-12.074-8.207-19.797 0-7.6875 3.1406-14.688 8.207-19.762 5.0703-5.1055 12.074-8.2422 19.797-8.2422zm5.5703 22.434c-1.4102-1.3984-3.3867-2.2734-5.5703-2.2734-2.1719 0-4.1406 0.87891-5.5508 2.2891-1.418 1.3906-2.2891 3.3672-2.2891 5.5508 0 2.1719 0.87891 4.1406 2.2891 5.5508 1.4102 1.4102 3.3789 2.2891 5.5508 2.2891 2.0234 0 3.8633-0.74219 5.2422-1.9648l0.30859-0.32812c1.4102-1.4102 2.2891-3.3789 2.2891-5.5508 0-2.1836-0.875-4.1602-2.2734-5.5703zm-5.5703-148.39c7.6875 0 14.688 3.1406 19.762 8.207 5.1016 5.1133 8.2422 12.109 8.2422 19.797 0 7.7227-3.1367 14.727-8.207 19.797l-0.66016 0.60547c-5.0156 4.707-11.758 7.5977-19.137 7.5977-7.7227 0-14.727-3.1367-19.797-8.207-5.0703-5.0703-8.207-12.074-8.207-19.797 0-7.6875 3.1406-14.688 8.207-19.762 5.0703-5.1055 12.074-8.2422 19.797-8.2422zm5.5703 22.434c-1.4102-1.3984-3.3867-2.2734-5.5703-2.2734-2.1719 0-4.1406 0.87891-5.5508 2.2891-1.418 1.3906-2.2891 3.3672-2.2891 5.5508 0 2.1719 0.87891 4.1406 2.2891 5.5508s3.3789 2.2891 5.5508 2.2891c2.0234 0 3.8633-0.74219 5.2422-1.9648l0.30859-0.32812c1.4102-1.4102 2.2891-3.3789 2.2891-5.5508 0-2.1836-0.875-4.1602-2.2734-5.5703zm17.59-202.13h-64.824c-3.2031 0-6.125 1.2188-8.2812 3.2148l-0.375 0.39453c-2.2266 2.2266-3.6055 5.2969-3.6055 8.6641v367.26c0 3.3867 1.3672 6.4609 3.5703 8.6562 2.2305 2.2383 5.3086 3.6055 8.6953 3.6055h254.9c3.3672 0 6.4375-1.3789 8.6641-3.6055 2.2383-2.1953 3.6055-5.2734 3.6055-8.6562v-367.26c0-3.3672-1.3789-6.4375-3.6055-8.6641-2.2266-2.2266-5.2969-3.6055-8.6641-3.6055h-64.824v10.008c0 5.5625-4.5156 10.082-10.082 10.082h-105.09c-5.5625 0-10.082-4.5156-10.082-10.082v-10.008zm39.547-23.438h-19.387v23.367h84.926v-23.367h-19.383c-5.5625 0-10.082-4.5156-10.082-10.082 0-3.5938-1.457-6.8555-3.8008-9.1992s-5.6055-3.8008-9.1992-3.8008-6.8477 1.457-9.1953 3.8008c-2.3438 2.3438-3.8008 5.6055-3.8008 9.1992 0 5.5625-4.5156 10.082-10.082 10.082z"/>
</svg>