<?xml version="1.0" encoding="UTF-8"?>
<!-- Uploaded to: SVG Find, www.svgrepo.com, Generator: SVG Find Mixer Tools -->
<svg fill="#000000" width="800px" height="800px" version="1.1" viewBox="144 144 512 512" xmlns="http://www.w3.org/2000/svg">
 <g fill-rule="evenodd">
  <path d="m380.78 436.75c0.78516 0 1.582 0.19141 2.2969 0.58203l152.04 81.973c1.7148 0.92188 2.7109 2.7852 2.5195 4.7266-1.543 15.867 4.6875 29.598 16.258 35.832 11.098 5.9844 25.066 4.0859 36.969-4.6484l-18.695-10.086c-2.3477-1.2695-3.2383-4.1992-1.9648-6.5547l17.188-31.871c0.60547-1.1289 1.6406-1.9688 2.8711-2.3359 1.2305-0.37109 2.5508-0.23438 3.6797 0.375l18.707 10.082c0.75391-14.75-5.332-27.461-16.441-33.449-11.57-6.2383-26.457-3.8906-38.863 6.1172-1.5195 1.2188-3.6172 1.418-5.332 0.49219l-152.05-81.973c-1.7109-0.92578-2.7031-2.7891-2.5117-4.7266 1.5312-15.867-4.6875-29.594-16.258-35.832-11.098-5.9883-25.066-4.0859-36.98 4.6484l18.707 10.082c2.3477 1.2695 3.2227 4.2031 1.9648 6.5547l-17.184 31.871c-0.61328 1.1289-1.6445 1.9727-2.875 2.3398-1.2266 0.36719-2.5508 0.23438-3.6875-0.375l-18.695-10.082c-0.75391 14.746 5.332 27.465 16.438 33.449 11.562 6.2344 26.457 3.8906 38.863-6.1172 0.87891-0.71094 1.957-1.0703 3.0352-1.0742zm187.12 136.27c-6.4688 0-12.809-1.5195-18.594-4.6406-14.23-7.6719-22.293-23.59-21.52-42.039l-146.55-79.012c-14.984 10.793-32.715 12.801-46.949 5.1289-16.539-8.918-24.602-28.73-20.551-50.48 0.28125-1.5195 1.2695-2.8125 2.6719-3.4805 1.3906-0.66797 3.0234-0.625 4.3828 0.10547l20.695 11.156 12.59-23.355-20.695-11.156c-1.3594-0.73438-2.2891-2.0703-2.5-3.6016-0.21094-1.5312 0.32422-3.0703 1.4414-4.1406 15.945-15.34 36.93-19.488 53.469-10.57 14.234 7.6719 22.293 23.59 21.52 42.039l146.55 79.012c14.98-10.793 32.715-12.801 46.949-5.1289 16.527 8.918 24.602 28.734 20.551 50.48-0.28125 1.5195-1.2812 2.8125-2.6719 3.4766-1.3906 0.66797-3.0234 0.62891-4.3828-0.10547l-20.691-11.156-12.59 23.352 20.695 11.156c1.3594 0.73438 2.2852 2.0742 2.4961 3.6055 0.20312 1.5312-0.33203 3.0703-1.4414 4.1406-10.363 9.9688-22.859 15.211-34.875 15.211z"/>
  <path d="m389.2 585.34h-52.492c-2.6797 0-4.8398-2.1641-4.8398-4.8398v-22.113c-7.168-1.3984-14.273-3.3008-21.199-5.6719l-11.055 19.145c-1.332 2.3125-4.2969 3.1094-6.6133 1.7734l-45.453-26.246c-2.3086-1.3359-3.1055-4.293-1.7773-6.6055l11.07-19.172c-5.5039-4.8047-10.695-9.9961-15.504-15.5l-19.168 11.066c-1.1094 0.64062-2.4297 0.8125-3.6719 0.48438-1.2383-0.33203-2.2969-1.1445-2.9336-2.2539l-26.246-45.461c-1.3398-2.3125-0.54297-5.2734 1.7617-6.6055l19.133-11.047c-2.3594-6.918-4.2656-14.02-5.668-21.199h-22.102c-2.6719 0-4.8398-2.168-4.8398-4.8359v-52.492c0-2.6719 2.1641-4.8359 4.8359-4.8359h22.113c1.4023-7.168 3.2969-14.266 5.6641-21.191l-19.141-11.055c-2.3086-1.3359-3.1055-4.293-1.7656-6.6094l26.246-45.461c0.63672-1.1094 1.6914-1.9219 2.9336-2.2539 1.2383-0.33203 2.5586-0.15625 3.668 0.48438l19.18 11.066c4.8086-5.5039 10-10.695 15.5-15.5l-11.074-19.172c-1.332-2.3125-0.53516-5.2734 1.7734-6.6094l45.457-26.246c1.1211-0.64062 2.4375-0.8125 3.6797-0.48047 1.2422 0.33203 2.2969 1.1445 2.9336 2.2539l11.047 19.137c6.9219-2.3672 14.027-4.2656 21.203-5.668v-22.109c0-2.6719 2.1562-4.8359 4.8359-4.8359h52.492c2.6719 0 4.8359 2.168 4.8359 4.8398v22.109c7.1562 1.3984 14.262 3.3008 21.195 5.6758l11.047-19.145c0.64453-1.1094 1.7031-1.9219 2.9336-2.2539 1.2422-0.33203 2.5586-0.16016 3.6797 0.48438l45.457 26.246c1.1094 0.64063 1.9258 1.6992 2.2578 2.9375 0.33203 1.2383 0.15234 2.5586-0.48438 3.6719l-11.066 19.168c5.5039 4.8047 10.691 10 15.5 15.504l19.172-11.07c1.1094-0.64062 2.4297-0.8125 3.668-0.48047 1.2422 0.33203 2.2969 1.1445 2.9414 2.2539l26.246 45.457c1.332 2.3125 0.54297 5.2734-1.7734 6.6094l-19.129 11.043c2.3711 6.918 4.2617 14.023 5.6758 21.203h22.094c2.6719 0 4.8359 2.168 4.8359 4.8398v52.492c0 2.6719-2.168 4.8398-4.8398 4.8398h-22.152c-2.4805 11.426-7.3789 25.012-8.9531 29.262-0.9375 2.5039-3.7188 3.7812-6.2188 2.8516-2.5078-0.92969-3.7891-3.7148-2.8516-6.2188 1.6953-4.5664 7.3672-20.34 9.2617-31.539 0.39453-2.332 2.4102-4.0312 4.7656-4.0312h21.309v-42.816h-21.297c-2.3594 0-4.375-1.7031-4.7695-4.0312-1.5703-9.3047-4.0312-18.5-7.3164-27.336-0.81641-2.2148 0.082031-4.6953 2.1172-5.875l18.438-10.641-21.406-37.082-18.465 10.664c-2.0469 1.1797-4.6367 0.71484-6.1484-1.1016-6.0156-7.2578-12.75-13.984-19.996-20.004-1.8125-1.5078-2.2891-4.1016-1.1094-6.1406l10.664-18.469-37.082-21.406-10.645 18.445c-1.1797 2.043-3.6602 2.9375-5.875 2.1172-8.8555-3.2891-18.051-5.75-27.324-7.3125-2.3281-0.39453-4.0312-2.4102-4.0312-4.7695v-21.309h-42.816v21.309c0 2.3633-1.707 4.3789-4.043 4.7734-9.2812 1.5664-18.484 4.0273-27.324 7.3086-2.2148 0.82031-4.6953-0.074219-5.875-2.1172l-10.641-18.441-37.082 21.406 10.664 18.473c1.1797 2.043 0.71484 4.6367-1.0977 6.1445-7.2539 6.0156-13.98 12.746-20.008 20-1.5 1.8125-4.0938 2.2812-6.1367 1.1016l-18.473-10.664-21.406 37.082 18.445 10.648c2.0469 1.1836 2.9297 3.6641 2.1133 5.875-3.2852 8.8516-5.7461 18.047-7.3164 27.328-0.39062 2.3281-2.4102 4.0312-4.7656 4.0312h-21.309v42.816h21.297c2.3594 0 4.375 1.7031 4.7773 4.0312 1.5625 9.3008 4.0234 18.5 7.3086 27.336 0.81641 2.2109-0.082031 4.6914-2.1172 5.875l-18.434 10.641 21.406 37.082 18.465-10.664c2.0469-1.1797 4.6367-0.71094 6.1484 1.1016 6.0195 7.2539 12.75 13.984 20.008 20.004 1.8164 1.5039 2.2773 4.1016 1.0977 6.1406l-10.664 18.469 37.082 21.406 10.641-18.445c1.1914-2.043 3.668-2.9375 5.875-2.1133 8.8594 3.2891 18.062 5.75 27.324 7.3125 2.3398 0.39453 4.043 2.4102 4.043 4.7695v21.309h42.816v-21.301c0-2.3594 1.7031-4.375 4.0312-4.7695 9.3047-1.5742 18.496-4.0312 27.336-7.3086 2.207-0.82422 4.6953 0.074218 5.875 2.1172l10.637 18.43 37.082-21.406-10.664-18.469c-1.1719-2.0391-0.70703-4.6367 1.1055-6.1406 5.7188-4.75 12.641-12.047 21.156-22.312 1.707-2.0586 4.7578-2.3398 6.8125-0.63672 2.0547 1.707 2.3398 4.7578 0.63672 6.8125-7.5781 9.1328-13.82 15.879-19.332 20.891l11.086 19.203c1.332 2.3164 0.54297 5.2734-1.7734 6.6094l-45.453 26.246c-1.1211 0.64062-2.4414 0.81641-3.6797 0.48438-1.2305-0.33203-2.2891-1.1445-2.9336-2.2539l-11.047-19.129c-6.9141 2.3633-14.02 4.2656-21.199 5.6719v22.098c0 2.6719-2.168 4.8398-4.8359 4.8398z"/>
  <path d="m362.96 512.48c-62.027 0-112.49-50.461-112.49-112.48 0-62.027 50.465-112.49 112.49-112.49 62.027 0 112.48 50.461 112.48 112.49 0.003906 12.617-2.0977 25.055-6.25 36.969-0.875 2.5234-3.6367 3.8594-6.1602 2.9805-2.5195-0.87891-3.8594-3.6367-2.9844-6.1602 3.7891-10.891 5.7148-22.258 5.7148-33.789 0-56.691-46.121-102.81-102.8-102.81-56.691-0.003906-102.82 46.121-102.82 102.81s46.121 102.81 102.82 102.81c28.07 0 55.262-11.684 74.586-32.051 1.8359-1.9375 4.8984-2.0195 6.8438-0.17969 1.9375 1.8398 2.0156 4.9023 0.17188 6.8398-21.133 22.289-50.879 35.07-81.598 35.07z"/>
  <path d="m362.96 512.48c-62.027 0-112.49-50.461-112.49-112.48 0-62.027 50.465-112.49 112.49-112.49 62.027 0 112.48 50.461 112.48 112.49 0 12.617-2.0977 25.055-6.25 36.969-0.875 2.5234-3.6367 3.8594-6.1602 2.9805-2.5195-0.87891-3.8594-3.6367-2.9844-6.1602 3.7891-10.891 5.7148-22.258 5.7148-33.789 0-56.691-46.121-102.81-102.8-102.81-56.691-0.003906-102.82 46.121-102.82 102.81s46.121 102.81 102.82 102.81c28.07 0 55.262-11.684 74.586-32.051 1.8359-1.9375 4.8984-2.0195 6.8438-0.17969 1.9375 1.8398 2.0156 4.9023 0.17188 6.8398-21.133 22.289-50.879 35.07-81.598 35.07z"/>
 </g>
</svg>